<?xml version="1.0" encoding="utf-8"?>
<!-- Generator: Adobe Illustrator 26.0.2, SVG Export Plug-In . SVG Version: 6.00 Build 0)  -->
<svg version="1.1" id="Layer_1" xmlns="http://www.w3.org/2000/svg" xmlns:xlink="http://www.w3.org/1999/xlink" x="0px" y="0px"
	 viewBox="0 0 655.56 172.88" style="enable-background:new 0 0 655.56 172.88;" xml:space="preserve">
<style type="text/css">
	.st0{fill:#EFF7EF;}
	.st1{fill:#8D5B31;}
	.st2{fill:#58351E;}
</style>
<g>
	<path class="st0" d="M75.13,9.81c0.86,2.3,0.58,4.4-1.12,6.24c-1.28,1.38-2.94,1.74-4.81,1.69c0.67-1.08,1.3-2.11,1.93-3.14
		c0.09-0.14,0.18-0.28,0.26-0.42c0.07-0.11,0.17-0.22,0.02-0.36c-0.16-0.15-0.24,0-0.33,0.08c-0.67,0.55-1.33,1.1-2,1.65
		c-0.09,0.07-0.16,0.18-0.34,0.2c0.38-1.06,0.89-2.03,1.57-2.91c1.07-1.39,2.47-2.3,4.13-2.84c0.15-0.05,0.33-0.03,0.43-0.19
		C74.95,9.81,75.04,9.81,75.13,9.81z"/>
	<path class="st1" d="M80.63,73.39c1.09-0.74,2.17-1.48,3.26-2.21c6.14-4.16,12.28-8.31,18.42-12.47c0.12-0.08,0.26-0.16,0.39-0.22
		c1.2-0.51,2.39-1.03,3.6-1.52c1.7-0.69,3.51-0.76,5.29-0.62c3.46,0.28,6.84,1.03,10.04,2.39c4.52,1.92,7.65,5.31,9.68,9.72
		c1.99,4.32,2.95,8.87,2.66,13.64c-0.37,6.11-2.7,11.4-6.85,15.91c-2.37,2.57-5.21,4.52-8.21,6.28c-4.53,2.65-9.21,5-13.85,7.44
		c-2.78,1.46-5.54,2.93-8.21,4.58c-3.92,2.42-6.09,5.97-6.79,10.47c-0.61,3.92-0.34,7.82,0.32,11.71c0.54,3.19,1.45,6.28,2.35,9.37
		c0.01,0.04,0.03,0.08,0.05,0.13c0.18,0.75,0.09,0.91-0.63,1.14c-4.15,1.32-8.39,2.15-12.74,2.38c-5.5,0.29-10.89-0.38-16.2-1.86
		c-0.37-0.1-0.43-0.23-0.35-0.59c0.72-3.09,1.53-6.17,2.1-9.3c0.53-2.96,0.87-5.94,0.59-8.95c-0.31-3.28-1.11-6.41-3.09-9.14
		c-1.39-1.92-3.25-3.27-5.32-4.38c-6.48-3.47-13.01-6.82-19.43-10.38c-3.48-1.93-6.69-4.21-9.45-7.11
		c-3.66-3.84-5.92-8.35-6.62-13.61c-0.88-6.61,0.24-12.84,3.86-18.5c3.04-4.75,7.35-7.74,12.93-8.79c3.23-0.61,6.43-0.33,9.61,0.46
		c4.12,1.02,7.85,2.89,11.38,5.22c5.07,3.34,9.95,6.94,14.91,10.42c0.04,0.03,0.07,0.06,0.17,0.14c-0.53,0.05-1,0.01-1.47-0.04
		c-3.68-0.37-6.99-1.76-10.18-3.54c-3.31-1.85-6.53-3.83-9.88-5.62c-5.48-2.93-11.84-2.25-16.55,1.79
		c-4.07,3.49-5.96,7.97-5.83,13.3c0.13,5.4,2.61,9.54,6.9,12.68c2.3,1.69,4.86,2.9,7.42,4.12c4.24,2.02,8.6,3.76,12.87,5.71
		c4.38,2,8.78,3.95,13.1,6.06c1.85,0.91,3.43,2.15,4.99,3.46c0.34,0.28,0.69,0.55,1.02,0.83c0.14,0.12,0.23,0.15,0.37-0.02
		c3.59-4.51,8.45-7.19,13.65-9.35c5.3-2.2,10.61-4.36,15.84-6.72c3.62-1.64,7.2-3.36,10.51-5.55c2.82-1.87,5.1-4.25,6.45-7.4
		c1.8-4.22,1.51-8.43-0.24-12.58c-1.58-3.76-4.07-6.74-7.82-8.49c-4.22-1.97-8.47-1.77-12.66,0.14c-2.76,1.26-5.32,2.89-7.92,4.46
		c-2.82,1.7-5.7,3.27-8.9,4.17C84.36,73.07,82.53,73.39,80.63,73.39z"/>
	<path class="st1" d="M76.51,86.91c5.3,0,9.54,4.23,9.54,9.53c0,5.22-4.32,9.41-9.74,9.37c-5.5-0.04-9.33-4.55-9.24-9.76
		C67.16,90.99,71.3,86.91,76.51,86.91z"/>
	<path class="st0" d="M102.81,27.01c-1.29-0.77-2.57-1.14-3.92-1.27c-2.58-0.25-5.15-0.06-7.72,0.13c-1.16,0.09-2.33,0.19-3.5,0.29
		c0-0.19,0.18-0.23,0.29-0.3c5.01-3.5,10.58-4.98,16.66-4.6c2.98,0.19,5.83,0.92,8.58,2.05c0.17,0.07,0.33,0.15,0.49,0.24
		c0.65,0.37,0.87,0.83,0.65,1.56c-0.5,1.68-1.34,3.18-2.44,4.53c-2.91,3.6-6.73,5.57-11.29,6.11c-3.83,0.46-7.42-0.29-10.69-2.38
		c-0.98-0.62-1.86-1.36-2.66-2.2c-0.04-0.04-0.08-0.09-0.12-0.14c-0.39-0.51-0.37-0.59,0.19-0.89c3.3-1.8,6.84-2.75,10.57-3.05
		C99.49,26.96,101.08,27,102.81,27.01z"/>
	<path class="st0" d="M59.66,134.45c-4.3-1.68-8.67-2.55-13.28-1.83c0.01,0.18,0.17,0.14,0.27,0.16c3.14,0.65,6.2,1.52,9.07,2.99
		c1.49,0.76,2.88,1.67,4.19,2.72c0.21,0.17,0.23,0.25-0.01,0.42c-3.13,2.22-6.57,3.48-10.45,3.12c-5.61-0.53-11.94-3.66-14.04-11.57
		c-0.12-0.47-0.21-0.95-0.34-1.41c-0.08-0.3,0.01-0.46,0.29-0.6c1.75-0.9,3.63-1.27,5.57-1.33c5.23-0.15,10.12,1.09,14.64,3.73
		c1.48,0.86,2.79,1.94,3.86,3.28C59.51,134.22,59.58,134.34,59.66,134.45z"/>
	<path class="st0" d="M92.75,141.37c4.18-3.47,9.07-5.15,14.49-5.82c-0.85-0.33-1.64-0.45-2.43-0.51c-2.34-0.18-4.62,0.23-6.89,0.76
		c-1.42,0.33-2.81,0.75-4.2,1.17c-0.11,0.03-0.23,0.06-0.42,0.11c0.24-0.45,0.52-0.78,0.81-1.1c1.74-1.92,3.93-3.16,6.3-4.12
		c3.85-1.56,7.86-2.24,12.01-2c1.78,0.1,3.52,0.45,5.17,1.15c0.21,0.09,0.32,0.17,0.28,0.42c-0.61,3.53-2,6.67-4.73,9.08
		c-2.85,2.52-6.19,3.93-10,4.17c-3.6,0.23-6.79-0.96-9.77-2.87c-0.18-0.11-0.35-0.24-0.53-0.36
		C92.81,141.46,92.79,141.43,92.75,141.37z"/>
	<path class="st0" d="M36.84,118.95c-0.63-0.45-1.24-0.91-1.88-1.35c-2.96-2.04-6.18-3.46-9.76-4c-0.17-0.03-0.35-0.04-0.55-0.01
		c4.52,2.38,8.65,5.21,11.57,9.57c-0.98,0.4-1.98,0.67-3,0.87c-5.25,1.03-9.77-0.48-13.67-4.01c-3.26-2.96-4.79-6.7-4.84-11.07
		c-0.01-0.65,0.01-1.3,0.06-1.95c0.02-0.34,0.16-0.43,0.45-0.49c1.63-0.34,3.27-0.28,4.88,0.07c5.86,1.29,10.79,4.17,14.7,8.73
		c0.91,1.06,1.65,2.25,2.1,3.59C36.89,118.91,36.86,118.93,36.84,118.95z"/>
	<path class="st0" d="M113.21,123.02c0.44-1.08,1.14-1.99,1.91-2.85c2.54-2.85,5.72-4.74,9.27-6.05c2.58-0.96,5.25-1.48,8-1.51
		c1-0.01,2,0.08,2.99,0.23c0.38,0.06,0.52,0.2,0.52,0.61c0,6.41-2.93,11.05-8.54,14.03c-4.06,2.15-8.27,2.07-12.51,0.59
		c-0.51-0.18-1.01-0.38-1.56-0.59c3.21-3.99,7.5-6.35,12.03-8.38c-4.2,0.05-7.97,1.43-11.47,3.64c-0.19,0.12-0.39,0.24-0.58,0.36
		C113.25,123.06,113.23,123.04,113.21,123.02z"/>
	<path class="st0" d="M28.25,47.13c0.74-0.3,1.47-0.61,2.22-0.89c3.08-1.17,6.25-1.81,9.56-1.67c0.38,0.02,0.47,0.07,0.32,0.46
		c-1.97,5.2-5.73,8.13-11.23,8.79c-3.62,0.44-6.78-0.76-9.57-3.02c-0.31-0.25-0.58-0.54-0.9-0.77c-0.31-0.22-0.27-0.42-0.09-0.71
		c1.01-1.63,2.36-2.92,3.93-3.99c3.65-2.47,7.66-3.86,12.1-3.91c1.18-0.01,2.36,0.13,3.55,0.54C34.5,43.13,30.85,44.12,28.25,47.13z
		"/>
	<path class="st0" d="M124.84,51.44c-1.62-1.71-3.62-2.82-5.78-3.69c-1.04-0.42-2.11-0.76-3.18-1.08c-0.15-0.05-0.3-0.1-0.57-0.19
		c1.14-0.37,2.19-0.54,3.27-0.54c5.39,0.01,10.01,1.99,14.01,5.52c0.81,0.72,1.51,1.53,2.14,2.41c0.09,0.13,0.22,0.24,0.03,0.42
		c-2.05,1.95-4.36,3.45-7.2,3.92c-6.46,1.07-12.28-2.31-14.58-8.43c-0.21-0.55-0.21-0.54,0.38-0.59c3.16-0.25,6.19,0.36,9.14,1.43
		c0.77,0.28,1.52,0.59,2.28,0.88c0.04,0.06,0.11,0.09,0.14,0.05C124.97,51.5,124.87,51.48,124.84,51.44z"/>
	<path class="st0" d="M50.01,94.4c0.46,1.26,1.33,2.23,2.29,3.12c1.56,1.47,3.35,2.65,5.19,3.74c0.17,0.1,0.33,0.2,0.51,0.31
		c-0.47,0.15-1.29,0.15-2.15,0.02c-3.5-0.54-6.44-2.23-9.08-4.5c-2.28-1.96-4.1-4.28-5.31-7.06c-0.21-0.47-0.1-0.66,0.31-0.91
		c1.96-1.16,4.06-1.85,6.34-1.83c4.32,0.05,9.85,2.38,12.03,8.23c0.49,1.31,0.81,2.66,1.02,4.04c0.02,0.13,0.02,0.27,0.03,0.43
		c-0.4-0.06-0.73-0.24-1.08-0.37c-2.12-0.8-4.28-1.52-6.22-2.74c-1.14-0.72-2.23-1.51-3.34-2.28c-0.15-0.1-0.31-0.19-0.46-0.28
		c-0.02-0.04-0.04-0.08-0.09-0.05C49.99,94.3,50.01,94.36,50.01,94.4z"/>
	<path class="st0" d="M87.8,97.03c3.56-2.42,7.33-4.25,11.61-5.09c-0.61-0.37-1.87-0.52-2.82-0.46c-2.66,0.18-5.16,0.99-7.64,1.91
		c-0.13,0.05-0.25,0.1-0.39,0.15c0.18-0.47,0.75-1.16,1.5-1.83c2.12-1.91,4.64-3.05,7.37-3.76c3.52-0.91,7.06-1.05,10.6-0.06
		c0.39,0.11,0.48,0.28,0.43,0.66c-0.85,6.74-5.91,9.86-10.16,10.81c-3.29,0.73-6.33-0.08-9.24-1.61
		C88.64,97.52,88.23,97.27,87.8,97.03z"/>
	<path class="st0" d="M79.15,62.25c-1.68-1.87-3.27-3.64-4.86-5.41c-0.62-0.69-1.25-1.36-1.85-2.07c-0.34-0.4-0.49,0.01-0.69,0.12
		c-0.3,0.17-0.02,0.31,0.07,0.41c2,2.33,3.7,4.83,4.71,7.76c0.24,0.7,0.42,1.42,0.6,2.14c0.09,0.35-0.02,0.47-0.39,0.49
		c-2.17,0.11-4.1-0.6-5.86-1.77c-4.24-2.81-6.1-6.84-5.84-11.86c0.1-1.86,0.74-3.58,1.8-5.13c0.18-0.27,0.34-0.3,0.63-0.2
		c2.13,0.7,3.94,1.93,5.55,3.45c2.58,2.43,4.53,5.28,5.61,8.68C78.96,59.92,79.16,61,79.15,62.25z"/>
	<path class="st0" d="M16.55,99.61c-0.15-0.89-0.29-1.66-0.4-2.43c-0.34-2.49-1.21-4.8-2.3-7.04c-0.11-0.23-0.21-0.47-0.32-0.7
		c-0.06-0.14-0.07-0.34-0.34-0.21c-0.21,0.1-0.29,0.18-0.21,0.43c0.75,2.29,1.1,4.65,1.08,7.06c-0.01,1.49-0.18,2.96-0.46,4.42
		c-0.02,0.1-0.06,0.19-0.1,0.31c-3.81-2.05-6.23-5.07-6.82-9.41c-0.69-5.11,1.15-9.13,5.21-12.21c0.26-0.2,0.4-0.13,0.61,0.06
		c2.11,1.91,3.43,4.29,4.25,6.97c1.25,4.09,1.34,8.19-0.04,12.28C16.68,99.26,16.64,99.38,16.55,99.61z"/>
	<path class="st0" d="M95.03,46.08c0.83-1.69,2.1-3,3.58-4.1c3.21-2.38,6.81-3.72,10.82-3.88c0.93-0.04,1.85,0.03,2.76,0.16
		c0.31,0.04,0.39,0.16,0.39,0.46c0.02,4.85-2.16,8.41-6.36,10.74c-3.25,1.81-6.63,1.76-10.06,0.54c-0.35-0.12-0.7-0.27-1.09-0.43
		c1.22-1.51,2.64-2.72,4.21-3.77c1.57-1.04,3.25-1.86,5.08-2.69c-0.44,0-0.76-0.02-1.07,0c-0.33,0.02-0.66,0.07-0.99,0.13
		c-2.43,0.38-4.65,1.33-6.72,2.62c-0.15,0.1-0.31,0.18-0.47,0.27C95.08,46.12,95.06,46.1,95.03,46.08z"/>
	<path class="st2" d="M129.89,142.52c0.57,0.62,1.09,1.18,1.62,1.74c1.39,1.48,2.78,2.96,4.19,4.43c0.29,0.3,0.29,0.53-0.05,0.77
		c-0.51,0.36-0.96,0.79-1.36,1.27c-0.24,0.28-0.43,0.28-0.69-0.02c-1.49-1.74-2.95-3.51-4.5-5.19c-1.66-1.81-3.41-3.54-5.14-5.28
		c-0.32-0.32-0.33-0.55-0.01-0.87c0.34-0.34,0.67-0.7,0.97-1.09c0.3-0.39,0.61-0.4,1.02-0.21c1.82,0.81,3.66,1.59,5.49,2.39
		c1.74,0.77,3.47,1.57,5.21,2.35c0.2,0.09,0.41,0.17,0.66,0.27c0.01-0.39-0.14-0.67-0.24-0.96c-1.26-3.46-2.63-6.88-4.01-10.3
		c-0.25-0.62-0.24-0.69,0.27-1.12c0.31-0.26,0.63-0.52,0.95-0.78c0.66-0.55,0.54-0.63,1.18,0.1c1.18,1.34,2.36,2.68,3.54,4.03
		c1.85,2.13,3.92,4.06,5.85,6.11c0.44,0.47,0.46,0.51-0.06,0.91c-0.44,0.35-0.85,0.72-1.23,1.14c-0.38,0.42-0.49,0.42-0.86,0
		c-1.49-1.69-2.98-3.39-4.47-5.09c-0.33-0.37-0.66-0.73-1.01-1.11c-0.16,0.24-0.01,0.4,0.04,0.56c0.97,2.77,2.03,5.5,3.11,8.22
		c0.13,0.33,0.11,0.58-0.16,0.8c-0.01,0.01-0.02,0.02-0.03,0.03c-0.9,0.92-0.94,0.93-2.09,0.41c-2.52-1.13-5.05-2.27-7.57-3.39
		C130.34,142.57,130.2,142.46,129.89,142.52z"/>
	<path class="st0" d="M75.1,37.89c-1.27-0.98-2.54-1.96-3.81-2.94c-1.15-0.89-2.33-1.74-3.46-2.66c-0.37-0.3-0.47-0.04-0.67,0.15
		c-0.3,0.3,0.08,0.36,0.19,0.45c1.95,1.65,3.79,3.41,5.19,5.57c0.47,0.73,0.87,1.49,1.22,2.28c0.22,0.49,0.21,0.5-0.33,0.65
		c-1.51,0.4-3.02,0.32-4.48-0.14c-4.77-1.51-7.64-4.73-8.53-9.65c-0.3-1.64-0.11-3.29,0.27-4.91c0.2-0.87,0.6-1.12,1.49-0.96
		c2.51,0.45,4.68,1.62,6.67,3.15c2.5,1.93,4.53,4.24,5.78,7.17c0.19,0.44,0.33,0.91,0.47,1.37C75.13,37.56,75.23,37.73,75.1,37.89
		L75.1,37.89z"/>
	<path class="st0" d="M139.98,105.39c-0.69-3.58-0.77-7.14,0.24-10.66c0.09-0.32,0.17-0.65,0.21-0.98c0.02-0.18,0.22-0.4-0.08-0.55
		c-0.3-0.15-0.41,0.08-0.54,0.25c-0.86,1.08-1.46,2.29-1.9,3.59c-0.58,1.71-0.9,3.48-1.33,5.31c-0.42-0.74-0.62-1.49-0.76-2.25
		c-0.53-2.89-0.04-5.66,0.95-8.38c0.91-2.52,2.25-4.82,3.86-6.96c0.2-0.26,0.32-0.21,0.54-0.06c2.92,1.96,4.58,4.72,5.04,8.16
		c0.67,4.96-1.1,8.93-5.12,11.9C140.75,105.03,140.37,105.26,139.98,105.39z"/>
	<path class="st0" d="M49.57,27.74c-1.15,0.84-1.92,1.84-2.53,2.97c-0.83,1.53-1.28,3.2-1.79,4.85c-0.07,0.23-0.14,0.46-0.24,0.76
		c-0.2-0.41-0.15-0.79-0.18-1.15c-0.32-4.29,0.44-8.33,2.79-11.99c0.67-1.05,1.43-2.04,2.31-2.92c0.65-0.65,1.05-0.65,1.69,0.01
		c2.05,2.12,3.19,4.65,3.3,7.61c0.11,3.29-0.91,6.17-3.18,8.57c-0.95,1-2.08,1.75-3.35,2.31c-0.31,0.13-0.37,0.05-0.42-0.25
		c-0.43-2.63-0.02-5.19,0.69-7.72C48.93,29.81,49.24,28.84,49.57,27.74z"/>
	<path class="st0" d="M89.77,55.52c-0.2-0.16-0.33,0.04-0.47,0.11c-2.01,1.11-3.52,2.76-4.8,4.62c-0.38,0.55-0.74,1.11-1.13,1.71
		c-0.12-0.49-0.02-0.95,0.08-1.38c1.15-5.23,4.02-9.19,8.77-11.75c0.36-0.19,0.76-0.29,1.13-0.47c0.32-0.15,0.48-0.03,0.67,0.23
		c1.12,1.58,1.59,3.37,1.54,5.27c-0.11,4.39-2.09,7.69-5.94,9.83c-1.23,0.68-2.56,1-3.97,0.96c-0.35-0.01-0.52-0.04-0.42-0.51
		c0.51-2.48,1.66-4.66,3.09-6.71C88.77,56.77,89.21,56.1,89.77,55.52c-0.02-0.03-0.03-0.05-0.04-0.08
		c-0.01,0.01-0.02,0.03-0.03,0.04C89.72,55.5,89.75,55.51,89.77,55.52z"/>
	<path class="st0" d="M74.7,20.54c2.42-2.44,5.27-4.08,8.62-4.81c2.08-0.45,4.18-0.51,6.29-0.28c1.06,0.12,1.5,0.66,1.32,1.69
		c-0.72,4.28-3.33,6.98-7.31,8.37c-3.1,1.09-6.15,0.81-9.02-0.89c-0.32-0.19-0.34-0.3-0.07-0.57c1.71-1.66,3.77-2.72,5.99-3.5
		c0.91-0.32,1.84-0.6,2.76-0.91c0.17-0.06,0.51,0.02,0.37-0.39c-0.1-0.3-0.14-0.48-0.57-0.39c-2.73,0.58-5.46,1.12-8.19,1.67
		C74.84,20.54,74.78,20.54,74.7,20.54z"/>
	<path class="st2" d="M75.18,154.45c1.81-0.03,3.32-0.07,4.82,0.21c2.67,0.5,4.36,2.1,5.14,4.63c0.99,3.18,0.48,6.11-1.81,8.62
		c-1.29,1.42-2.97,1.94-4.84,1.86c-1.82-0.09-3.64-0.06-5.45,0.03c-0.85,0.04-0.85,0.02-0.85-0.85c0.02-2.53,0.19-5.06,0.11-7.59
		c-0.06-2.15-0.15-4.29-0.24-6.44c-0.01-0.33,0.11-0.47,0.45-0.47C73.5,154.46,74.48,154.45,75.18,154.45z M74.95,161.25
		c-0.04,1.79,0.01,3.57,0.08,5.36c0.03,0.79,0.11,0.91,0.91,0.93c0.91,0.03,1.82,0.03,2.73-0.02c1.35-0.06,2.38-0.7,3.13-1.82
		c0.79-1.16,1.1-2.45,1.07-3.82c-0.06-3.03-1.95-5.09-4.81-5.19c-0.89-0.03-1.79-0.11-2.67,0.09c-0.31,0.07-0.45,0.22-0.45,0.56
		C74.96,158.64,74.95,159.94,74.95,161.25z"/>
	<path class="st2" d="M63.29,159.43c-0.1,2.2-1.12,4.61-3.46,6.36c-1.64,1.22-3.46,1.55-5.42,0.97c-1.96-0.58-3.91-1.17-5.91-1.58
		c-0.39-0.08-0.49-0.24-0.37-0.63c0.71-2.33,1.43-4.65,2.07-6.99c0.62-2.27,1.14-4.57,1.7-6.86c0.06-0.24,0.09-0.5,0.46-0.39
		c2.07,0.63,4.21,1.01,6.23,1.77c1.5,0.57,2.84,1.37,3.7,2.79C63.01,156.06,63.3,157.38,63.29,159.43z M55.49,164.63
		c1.09,0,1.72-0.19,2.41-0.67c1.65-1.16,2.44-2.8,2.67-4.75c0.2-1.74-0.3-3.25-1.67-4.37c-1.24-1.01-2.78-1.27-4.3-1.52
		c-0.34-0.06-0.51,0.11-0.61,0.45c-0.88,3.01-1.69,6.04-2.46,9.09c-0.12,0.49,0.03,0.72,0.43,0.87
		C53.19,164.17,54.46,164.51,55.49,164.63z"/>
	<path class="st2" d="M94.54,152.68c2.85,0.01,4.62,1.68,4.93,4.53c0.17,1.56-0.22,2.87-1.31,3.98c-0.24,0.24-0.24,0.43-0.04,0.69
		c1.07,1.47,2.13,2.95,3.19,4.42c0.07,0.1,0.13,0.2,0.2,0.3c0.15,0.2,0.08,0.32-0.14,0.34c-0.85,0.08-1.67,0.27-2.49,0.48
		c-0.29,0.07-0.44-0.13-0.58-0.34c-0.87-1.26-1.75-2.51-2.6-3.78c-0.3-0.45-0.67-0.58-1.16-0.49c-0.68,0.13-1.37,0.28-2.05,0.42
		c-0.65,0.14-0.7,0.21-0.56,0.85c0.27,1.18,0.55,2.36,0.82,3.54c0.23,0.99,0.23,0.99-0.79,1.11c-0.5,0.06-0.98,0.17-1.46,0.32
		c-0.35,0.11-0.54,0.02-0.61-0.4c-0.56-3.28-0.93-6.59-1.72-9.83c-0.35-1.42-0.67-2.85-1.04-4.27c-0.09-0.36,0.03-0.47,0.33-0.53
		c2.08-0.41,4.13-0.95,6.22-1.29C93.96,152.69,94.26,152.7,94.54,152.68z M94.39,155.11c-1.5,0.06-2.57,0.25-3.62,0.58
		c-0.3,0.09-0.43,0.23-0.37,0.59c0.24,1.54,0.57,3.06,0.84,4.59c0.05,0.29,0.2,0.29,0.41,0.26c0.9-0.14,1.8-0.26,2.69-0.44
		c1.91-0.38,2.69-1.37,2.37-3.07C96.43,156.13,95.75,155.02,94.39,155.11z"/>
	<path class="st0" d="M80.66,47.32c-0.64-1.92-0.86-3.77-0.75-5.66c0.17-2.9,0.96-5.6,2.6-8.02c0.42-0.62,0.91-1.17,1.43-1.7
		c0.22-0.23,0.39-0.23,0.65-0.04c2.71,1.92,4.21,4.54,4.39,7.84c0.23,4.2-1.47,7.49-4.91,9.9c-0.34,0.24-0.44,0.2-0.53-0.2
		c-0.58-2.53-0.48-5.05,0.03-7.58c0.18-0.88,0.39-1.76,0.6-2.71c-0.58,0.29-0.95,0.7-1.28,1.15c-0.97,1.34-1.47,2.88-1.83,4.46
		C80.87,45.56,80.77,46.37,80.66,47.32z"/>
	<path class="st2" d="M119.67,156.42c0.04,0.8,0.29,1.48,0.41,2.18c0.01,0.07,0.04,0.15,0.05,0.22c0.11,0.73,0.11,0.74-0.52,1.12
		c-0.47,0.28-0.94,0.55-1.41,0.83c-0.46,0.27-0.52,0.25-0.61-0.27c-0.27-1.52-0.53-3.04-0.81-4.56c-0.54-2.87-0.93-5.76-1.34-8.65
		c-0.11-0.81-0.24-1.62-0.37-2.42c-0.04-0.25,0-0.44,0.27-0.54c0.62-0.24,1.21-0.56,1.71-1.01c0.27-0.25,0.48-0.05,0.68,0.1
		c1.01,0.8,2.02,1.6,3.03,2.41c3.08,2.48,6.17,4.96,9.25,7.45c0.42,0.34,0.43,0.36-0.07,0.62c-0.58,0.3-1.15,0.61-1.68,0.99
		c-0.26,0.19-0.49,0.17-0.74,0c-0.44-0.3-0.81-0.69-1.21-1.04c-0.1-0.09-0.2-0.18-0.31-0.27c-0.8-0.68-0.92-0.69-1.82-0.17
		c-1.36,0.79-2.71,1.6-4.07,2.39C119.8,155.95,119.61,156.14,119.67,156.42z M117.83,146.82c0.35,2.01,0.69,3.92,1,5.82
		c0.09,0.57,0.21,0.83,0.97,0.45c0.89-0.45,1.75-0.96,2.58-1.52c0.14-0.09,0.25-0.22,0.37-0.34c0.16-0.17,0.17-0.32-0.04-0.49
		C121.11,149.47,119.52,148.18,117.83,146.82z"/>
	<path class="st2" d="M15.97,145.63c0.04-0.32,0.17-0.56,0.28-0.81c0.3-0.67,0.75-1.28,0.95-2c0.08-0.3,0.02-0.52-0.19-0.74
		c-1.23-1.24-2.46-2.47-3.67-3.73c-0.29-0.3-0.59-0.35-0.94-0.19c-0.56,0.26-1.12,0.54-1.68,0.8c-0.23,0.11-0.47,0.21-0.71,0.31
		c-0.25,0.1-0.45,0.06-0.65-0.15c-0.44-0.46-0.9-0.9-1.35-1.36c-0.39-0.39-0.39-0.47,0.11-0.69c1.98-0.9,3.98-1.77,5.96-2.68
		c2.82-1.29,5.74-2.34,8.57-3.6c0.29-0.13,0.48-0.09,0.66,0.17c0.35,0.52,0.78,0.97,1.31,1.31c0.34,0.22,0.22,0.49,0.1,0.75
		c-0.6,1.32-1.19,2.65-1.8,3.96c-1.57,3.44-3.14,6.87-4.71,10.31c-0.24,0.52-0.25,0.53-0.64,0.09c-0.43-0.47-0.86-0.94-1.35-1.35
		C16.1,145.92,15.93,145.81,15.97,145.63z M21.4,134.1c-0.03-0.02-0.05-0.05-0.08-0.07c-1.78,0.79-3.56,1.58-5.34,2.38
		c-0.53,0.24-0.59,0.43-0.21,0.89c0.32,0.4,0.71,0.75,1.06,1.12c0.44,0.46,0.87,0.93,1.4,1.29c0.32,0.22,0.52,0.2,0.69-0.19
		c0.34-0.79,0.72-1.57,1.08-2.35C20.46,136.15,20.93,135.12,21.4,134.1z"/>
	<path class="st0" d="M146.42,70.71c0.28,0.02,0.79,0.05,1.3,0.1c0.64,0.05,1.09,0.41,1.46,0.9c0.14,0.18,0.16,0.38,0.13,0.6
		c-0.37,3.18-1.97,5.55-4.74,7.12c-3.03,1.71-6.12,1.87-9.25,0.27c-0.15-0.07-0.3-0.13-0.4-0.29c-0.28-0.47-0.25-0.59,0.24-0.86
		c2.23-1.26,4.46-2.51,6.69-3.77c0.09-0.05,0.18-0.11,0.28-0.16c0.15-0.08,0.32-0.16,0.22-0.37c-0.09-0.18-0.24-0.05-0.36-0.02
		c-1.33,0.36-2.66,0.72-3.99,1.08c-0.88,0.24-1.75,0.47-2.63,0.71c-0.12,0.03-0.24,0.09-0.35,0.04c-0.13-0.05-0.26-0.12-0.07-0.27
		c2.83-2.26,5.68-4.48,9.45-4.94C145,70.77,145.59,70.71,146.42,70.71z"/>
	<path class="st2" d="M105.09,156.17c0.02,0,0.13-0.03,0.25-0.07c1.84-0.7,3.68-1.37,5.46-2.22c0.32-0.16,0.47-0.08,0.55,0.25
		c0.16,0.6,0.33,1.19,0.49,1.79c0.1,0.36-0.17,0.4-0.41,0.46c-1.51,0.39-2.96,0.96-4.41,1.51c-0.35,0.13-0.7,0.29-1.05,0.43
		c-0.31,0.13-0.4,0.36-0.29,0.66c0.33,0.88,0.64,1.76,1,2.62c0.35,0.84,0.66,0.97,1.53,0.69c1.73-0.56,3.37-1.35,5.02-2.1
		c0.95-0.43,0.94-0.44,1.11,0.59c0.07,0.45,0.17,0.89,0.28,1.33c0.07,0.28-0.05,0.41-0.29,0.46c-2.98,0.68-5.75,1.95-8.58,3.04
		c-0.4,0.15-0.6,0.09-0.74-0.34c-0.69-2.16-1.36-4.32-2.13-6.45c-0.84-2.35-1.83-4.63-2.84-6.91c-0.18-0.41-0.11-0.58,0.31-0.72
		c2.7-0.89,5.36-1.89,7.99-2.96c0.67-0.27,0.72-0.24,1.06,0.39c0.2,0.36,0.37,0.73,0.58,1.08c0.19,0.33,0.08,0.5-0.25,0.6
		c-1.46,0.46-2.91,0.93-4.36,1.4c-0.49,0.16-0.98,0.32-1.43,0.56c-0.32,0.17-0.47,0.42-0.38,0.78c0.24,1,0.66,1.94,1.04,2.9
		C104.65,156.12,104.8,156.2,105.09,156.17z"/>
	<path class="st2" d="M50,149.55c-0.16,0.56-0.31,1.18-0.57,1.76c-0.12,0.27-0.32,0.15-0.5,0.06c-1.26-0.65-2.52-1.31-3.79-1.96
		c-0.52-0.27-1.04-0.56-1.6-0.75c-0.55-0.19-0.77-0.12-1.06,0.38c-0.47,0.81-0.83,1.68-1.22,2.53c-0.16,0.35,0.03,0.56,0.35,0.71
		c1.77,0.81,3.53,1.65,5.36,2.33c0.53,0.2,0.54,0.21,0.27,0.69c-0.25,0.45-0.56,0.87-0.77,1.34c-0.2,0.44-0.44,0.41-0.78,0.21
		c-1.07-0.66-2.21-1.19-3.35-1.71c-0.6-0.28-1.22-0.54-1.82-0.81c-0.3-0.14-0.53-0.06-0.67,0.24c-0.4,0.85-0.81,1.69-1.17,2.55
		c-0.37,0.88-0.24,1.16,0.6,1.59c1.74,0.89,3.58,1.55,5.39,2.27c0.49,0.2,0.54,0.3,0.21,0.7c-0.36,0.45-0.68,0.93-0.99,1.41
		c-0.16,0.26-0.35,0.31-0.6,0.14c-2.53-1.63-5.34-2.69-8.06-3.95c-0.59-0.27-0.62-0.32-0.31-0.91c0.97-1.88,1.99-3.74,2.93-5.63
		c1.15-2.33,2.12-4.74,3.12-7.14c0.2-0.48,0.25-0.51,0.73-0.27c2.56,1.3,5.16,2.53,7.8,3.66C49.73,149.08,50,149.17,50,149.55z"/>
	<path class="st0" d="M20.75,75.17c-1.28,1.07-2.72,1.64-4.31,1.79c-4.43,0.43-8.46-2.09-9.96-6.19c-0.35-0.95-0.5-1.93-0.47-2.94
		c0.01-0.2,0.01-0.38,0.29-0.42c4.74-0.73,9.01,0.22,12.61,3.52c0.3,0.27,0.53,0.62,0.79,0.94c0.07,0.09,0.12,0.2,0.22,0.36
		c-1.66-0.41-3.26-0.81-4.86-1.21c-0.59-0.15-1.18-0.29-1.77-0.43c-0.13-0.03-0.31-0.18-0.4,0c-0.12,0.22,0.13,0.27,0.26,0.34
		c1.6,0.9,3.2,1.79,4.8,2.68C18.88,74.12,19.8,74.64,20.75,75.17z"/>
	<path class="st2" d="M27.65,150.88c2.17-1.06,4.27-2.06,6.25-3.29c0.26-0.16,0.47-0.37,0.64-0.63c0.83-1.27,1.67-2.53,2.49-3.8
		c0.21-0.33,0.4-0.36,0.68-0.12c0.5,0.44,1.05,0.82,1.64,1.13c0.29,0.16,0.37,0.33,0.15,0.65c-0.88,1.25-1.74,2.52-2.58,3.79
		c-0.3,0.45-0.71,0.73-1.16,0.99c-2.41,1.4-4.92,2.6-7.39,3.89c-0.35,0.18-0.71,0.35-1.05,0.54c-0.3,0.16-0.55,0.17-0.84-0.05
		c-0.4-0.31-0.81-0.6-1.24-0.84c-0.38-0.22-0.46-0.5-0.4-0.9c0.14-1.04,0.24-2.07,0.37-3.11c0.26-2.07,0.47-4.15,0.8-6.21
		c0.09-0.55,0.26-1.04,0.6-1.49c0.89-1.19,1.76-2.39,2.62-3.6c0.22-0.31,0.42-0.39,0.73-0.11c0.5,0.45,1.06,0.81,1.64,1.13
		c0.33,0.18,0.33,0.37,0.11,0.64c-0.76,0.97-1.47,1.97-2.25,2.91c-0.69,0.83-1.11,1.73-1.24,2.81
		C28.01,147.07,27.82,148.93,27.65,150.88z"/>
	<path class="st0" d="M118,30.23c-1.28,0.86-2.08,2.1-2.68,3.48c-0.46,1.04-0.87,2.09-1.36,3.14c0-0.65-0.03-1.3,0-1.95
		c0.19-3.88,1.46-7.33,4.15-10.2c0.05-0.06,0.1-0.12,0.15-0.17c0.99-0.98,1.81-0.92,2.64,0.2c2.88,3.91,2.29,9.68-1.3,12.79
		c-0.84,0.72-1.79,1.23-2.83,1.6c-0.32,0.12-0.43,0.09-0.46-0.3c-0.14-1.66,0.22-3.25,0.7-4.82c0.34-1.1,0.73-2.18,1-3.3
		c0.03-0.13,0.04-0.27,0.06-0.4c0.02-0.02,0.05-0.05,0.05-0.07C118.08,30.17,118.04,30.21,118,30.23z"/>
	<path class="st2" d="M141.94,130.94c-2.95,0-5.01-3.16-3.89-5.89c0.7-1.7,2.01-2.85,3.59-3.71c0.34-0.18,0.57-0.18,0.72,0.25
		c0.16,0.49,0.43,0.93,0.7,1.37c0.2,0.32,0.17,0.52-0.18,0.73c-0.61,0.37-1.21,0.75-1.72,1.26c-0.26,0.26-0.47,0.55-0.62,0.89
		c-0.26,0.54-0.29,1.08,0.09,1.58c0.41,0.54,0.92,0.85,1.64,0.72c0.85-0.15,1.56-0.64,2.34-0.96c0.67-0.28,1.28-0.67,2.03-0.73
		c0.59-0.05,1.15,0.03,1.69,0.25c2.15,0.86,3.31,3.14,2.83,5.5c-0.28,1.37-0.93,2.55-1.82,3.6c-0.29,0.35-0.57,0.53-1.03,0.2
		c-0.39-0.28-0.86-0.44-1.31-0.61c-0.68-0.25-0.71-0.34-0.2-0.88c0.52-0.56,1-1.14,1.36-1.81c0.22-0.41,0.41-0.85,0.43-1.33
		c0.07-1.32-1.02-2.25-2.31-1.93c-1.05,0.26-1.99,0.8-2.98,1.2C142.84,130.84,142.37,130.98,141.94,130.94z"/>
	<path class="st2" d="M6.45,132.6c-1.53-0.07-2.99-1.02-4.2-2.43c-0.33-0.39-0.64-0.81-0.88-1.27c-0.14-0.27-0.16-0.49,0.12-0.71
		c0.48-0.4,0.88-0.88,1.25-1.38c0.23-0.3,0.41-0.26,0.58,0.04c0.39,0.65,0.74,1.32,1.27,1.88c0.19,0.2,0.38,0.39,0.58,0.57
		c0.77,0.65,1.54,0.77,2.3,0.38c0.87-0.45,1.07-1.23,1.02-2.11c-0.06-0.97-0.17-1.93-0.25-2.9c-0.07-0.79,0.16-1.51,0.63-2.13
		c1.57-2.09,4.75-2.85,7.04-0.17c0.91,1.07,1.43,2.35,1.7,3.71c0.13,0.65,0.07,0.68-0.58,0.75c-0.45,0.05-0.9,0.13-1.34,0.23
		c-0.4,0.09-0.61,0.03-0.71-0.42c-0.12-0.57-0.28-1.14-0.52-1.69c-0.16-0.37-0.35-0.7-0.62-1c-0.48-0.52-1.03-0.85-1.77-0.58
		c-0.75,0.27-1.16,0.83-1.17,1.66c-0.01,0.88,0.18,1.75,0.29,2.62C11.55,130.5,9.71,132.62,6.45,132.6z"/>
	<path class="st0" d="M62.43,45.88c-0.8-0.74-1.53-1.42-2.25-2.1c-0.63-0.59-1.26-1.19-1.89-1.77c-0.09-0.09-0.17-0.29-0.37-0.14
		c-0.21,0.16-0.04,0.3,0.04,0.43c1.13,1.88,2.26,3.77,3.38,5.65c0.3,0.5,0.02,1-0.6,0.99c-2-0.03-3.7-0.79-5.06-2.23
		c-1.59-1.69-2.57-3.66-2.57-6.03c0-1.3,0.36-2.51,0.94-3.66c0.11-0.23,0.23-0.25,0.46-0.2c1.27,0.25,2.35,0.89,3.33,1.7
		c1.93,1.58,3.45,3.48,4.29,5.87c0.1,0.27,0.16,0.55,0.22,0.83C62.4,45.4,62.4,45.59,62.43,45.88z"/>
	<path class="st0" d="M52.61,70.8c-1.25-0.44-2.51-0.87-3.76-1.31c-0.21-0.07-0.43-0.16-0.64-0.23c-0.1-0.03-0.24-0.13-0.31,0.05
		c-0.06,0.15,0.06,0.21,0.16,0.28c0.82,0.57,1.64,1.14,2.47,1.71c0.88,0.61,1.76,1.23,2.71,1.88c-0.86,0.41-1.71,0.63-2.58,0.79
		c-3.21,0.58-7.61-1.77-7.97-6.4c-0.07-0.86-0.09-0.88,0.75-1.01c2.68-0.4,5.03,0.41,7.14,2.03C51.36,69.2,52.06,69.91,52.61,70.8z"
		/>
	<path class="st0" d="M52.29,118.25c-0.63,1.84-1.8,3.11-3.62,3.77c-2.73,0.98-5.01,0.23-7-1.75c-0.19-0.19-0.13-0.27,0.01-0.43
		c1.55-1.68,3.44-2.7,5.71-2.99c1.12-0.15,2.24-0.14,3.49,0.01c-0.79,0.33-1.46,0.61-2.14,0.89c-0.5,0.21-1.01,0.42-1.51,0.62
		c-0.15,0.06-0.3,0.1-0.23,0.31c0.06,0.2,0.22,0.12,0.34,0.1c1.57-0.18,3.13-0.35,4.7-0.53C52.1,118.24,52.17,118.25,52.29,118.25z"
		/>
	<path class="st0" d="M101.79,72.65c1.65-1.16,3.23-2.28,4.82-3.39c0.06-0.04,0.12-0.09,0.19-0.13c0.19-0.1,0.18-0.27,0.12-0.43
		c-0.07-0.18-0.23-0.1-0.35-0.07c-1.16,0.25-2.31,0.5-3.46,0.75c-0.07,0.01-0.14,0.02-0.29,0.03c1.4-1.44,2.96-2.45,4.86-2.91
		c0.66-0.16,1.34-0.25,2.02-0.28c0.68-0.02,1.15,0.34,1.52,0.84c0.25,0.33,0.11,0.74,0.05,1.1c-0.37,2.13-1.75,3.47-3.57,4.42
		c-1.72,0.9-3.52,0.75-5.31,0.25C102.2,72.8,102.03,72.74,101.79,72.65z"/>
	<path class="st0" d="M90.74,127.22c1.73,0.19,3.41,0.37,5.08,0.56c0.03,0,0.06,0.01,0.09,0.01c0.13,0.01,0.3,0.08,0.35-0.1
		c0.04-0.16-0.15-0.16-0.25-0.21c-1.06-0.52-2.12-1.03-3.19-1.55c-0.05-0.03-0.11-0.06-0.26-0.14c0.78-0.09,1.46-0.13,2.15-0.09
		c2.59,0.13,4.77,1.14,6.58,2.99c0.18,0.19,0.22,0.3,0.04,0.52c-2.64,3.16-7.45,2.36-9.18,0.35
		C91.56,128.87,91.09,128.12,90.74,127.22z"/>
	<path class="st0" d="M21.38,59.36c-1.25,0.39-2.37,0.75-3.49,1.11c-0.15,0.05-0.4,0.02-0.34,0.32c0.06,0.26,0.26,0.17,0.4,0.17
		c1.59,0.01,3.18,0,4.85,0c-0.38,0.83-0.88,1.49-1.53,2.03c-1.9,1.58-6.29,2.06-8.57-1.09c-0.17-0.24-0.11-0.36,0.04-0.54
		c1.1-1.29,2.54-1.99,4.17-2.3C18.38,58.78,19.83,58.86,21.38,59.36z"/>
	<path class="st0" d="M96,80.07c-0.01-0.04-0.04-0.09-0.03-0.12c0.94-2.82,2.49-5.14,5.3-6.42c0.18-0.08,0.29-0.14,0.44,0.09
		c1.63,2.57,0.56,6.65-2.15,8.08c-0.88,0.46-1.82,0.69-2.89,0.75c0.36-0.74,0.7-1.42,1.03-2.09c0.4-0.8,0.8-1.6,1.2-2.4
		c0.07-0.14,0.17-0.29,0-0.4c-0.16-0.11-0.23,0.09-0.32,0.17C97.72,78.5,96.86,79.29,96,80.07C96,80.07,96,80.07,96,80.07z"/>
	<path class="st0" d="M44.44,78.94c0.06,2.21-1.44,4.91-4.37,5.41c-1.24,0.21-2.41,0-3.54-0.53c-0.27-0.13-0.35-0.24-0.26-0.55
		c0.65-2.13,2.12-3.44,4.15-4.2c0.65-0.24,1.32-0.42,2.15-0.48c-0.81,0.64-1.52,1.19-2.22,1.76c-0.11,0.09-0.37,0.13-0.25,0.35
		c0.13,0.25,0.33,0.1,0.5,0.02c1.14-0.53,2.28-1.07,3.41-1.6C44.15,79.06,44.29,79.01,44.44,78.94z"/>
	<path class="st0" d="M40.82,33.49c-1.06,0.07-2.11,0.14-3.17,0.22c-0.13,0.01-0.35-0.07-0.38,0.14c-0.03,0.22,0.17,0.24,0.34,0.29
		c1.46,0.43,2.93,0.86,4.46,1.32c-0.71,0.78-1.51,1.33-2.49,1.6c-2.72,0.76-5.84-0.98-6.59-3.65c-0.1-0.35-0.07-0.51,0.35-0.62
		c2.47-0.66,4.88-0.64,7.23,0.48c0.09,0.04,0.18,0.09,0.28,0.14C40.83,33.43,40.82,33.46,40.82,33.49z"/>
	<path class="st0" d="M127.68,103.96c-0.9,0.11-1.68,0.22-2.46,0.3c-0.16,0.02-0.36,0.13-0.47-0.12c-0.11-0.24-0.18-0.39,0.17-0.53
		c1.6-0.63,3.19-1.31,4.82-1.88c0.33-0.12,0.53-0.04,0.75,0.2c0.54,0.57,0.73,1.21,0.54,1.99c-0.59,2.44-2.97,4.2-5.54,4.08
		c-0.44-0.02-0.88-0.01-1.32,0c-0.19,0-0.33-0.04-0.46-0.21c-0.18-0.24-0.17-0.38,0.08-0.58c0.83-0.66,1.65-1.33,2.53-1.93
		C126.82,104.95,127.28,104.57,127.68,103.96z"/>
	<path class="st0" d="M90.67,89.64c0.31-1.1,0.6-2.11,0.89-3.13c0.02-0.06,0.04-0.11,0.05-0.17c0.02-0.11,0.1-0.25-0.04-0.33
		c-0.16-0.09-0.21,0.07-0.28,0.16c-0.37,0.46-0.73,0.93-1.09,1.39c-0.09,0.12-0.19,0.23-0.37,0.44c0.16-1.88,0.66-3.48,1.89-4.8
		c0.52-0.56,1.15-0.98,1.8-1.37c0.33-0.19,0.49-0.11,0.69,0.18c1.72,2.42,0.92,5.54-1.8,6.97C91.89,89.27,91.34,89.5,90.67,89.64z"
		/>
	<path class="st0" d="M130.67,65.53c1.65,0.08,3.31,0.16,4.97,0.24c0.18,0.01,0.37,0,0.55,0.02c0.19,0.03,0.26-0.07,0.31-0.23
		c0.07-0.19-0.05-0.24-0.18-0.3c-0.66-0.33-1.32-0.67-1.99-1.01c-0.13-0.07-0.29-0.1-0.4-0.26c0.99-0.34,1.97-0.27,2.94,0.01
		c1.14,0.32,2.15,0.9,3.09,1.59c0.25,0.18,0.24,0.31,0.09,0.55c-1.34,2.21-3.63,2.93-6.06,1.9c-1.25-0.53-2.29-1.35-3.25-2.3
		c-0.04-0.04-0.07-0.1-0.1-0.15C130.64,65.59,130.66,65.57,130.67,65.53z"/>
	<path class="st0" d="M65.21,84.87c-0.34-0.52-0.67-1.04-1.01-1.54c-0.08-0.11-0.1-0.36-0.34-0.22c-0.19,0.11-0.25,0.26-0.17,0.5
		c0.35,1,0.69,2,1.02,3.01c0.06,0.17,0.16,0.33,0.12,0.55c-0.96-0.07-1.83-0.38-2.57-1c-2-1.66-2.44-4.6-1.02-6.78
		c0.2-0.3,0.34-0.36,0.67-0.15c1.8,1.15,3.03,2.68,3.34,4.85c0.04,0.25,0.05,0.51,0.07,0.76C65.28,84.85,65.25,84.86,65.21,84.87z"
		/>
	<path class="st0" d="M93.8,72.41c-0.66,0.42-1.31,0.84-1.97,1.26c-0.12,0.08-0.22,0.21-0.39,0.2l0.01,0.01
		c-0.05-0.24,0.13-0.39,0.22-0.57c0.94-1.75,2.18-3.2,4.1-3.93c0.06-0.02,0.11-0.04,0.17-0.06c1.21-0.35,1.05-0.59,1.4,0.8
		c0.7,2.82-1.32,5.45-4.3,5.67c-0.36,0.03-0.72,0.12-1.12-0.02c0.39-0.72,0.76-1.44,1.25-2.09c0.28-0.38,0.56-0.75,0.71-1.2
		c0-0.03,0-0.07,0-0.1C93.85,72.38,93.83,72.4,93.8,72.41z"/>
	<path class="st0" d="M105.56,119.2c1.03-2.28,2.58-4,5.08-4.71c0.35-0.1,0.5-0.02,0.63,0.32c1.1,2.9-0.69,5.88-3.79,6.3
		c-0.46,0.06-0.93,0.11-1.42,0.06c0.46-1.26,1.42-2.21,1.92-3.46c-0.79,0.51-1.57,1.02-2.36,1.54
		C105.6,119.23,105.58,119.22,105.56,119.2z"/>
	<path class="st0" d="M52.99,80.07c1.14-0.25,2.21-0.71,3.33-1.03c0.16-0.05,0.31-0.1,0.53-0.17c-0.28,1.69-0.99,3.04-2.51,3.82
		c-1.36,0.7-2.79,1.02-4.27,0.32c-1.05-0.5-1.05-0.56-0.45-1.52c1.01-1.6,2.35-2.72,4.27-3.03c0.09-0.01,0.18-0.02,0.39-0.05
		c-0.39,0.47-0.72,0.86-1.04,1.27C53.14,79.8,52.95,79.86,52.99,80.07c-0.03-0.03-0.05-0.03-0.06,0.01c0,0.01,0.01,0.03,0.01,0.04
		C52.95,80.1,52.97,80.09,52.99,80.07z"/>
	<path class="st0" d="M61.37,72.96c-0.5-0.03-1-0.07-1.5-0.09c-0.16-0.01-0.38-0.16-0.44,0.13c-0.06,0.27,0.19,0.27,0.34,0.34
		c0.78,0.39,1.57,0.78,2.36,1.16c0.09,0.05,0.2,0.08,0.28,0.14c0.43,0.31,0.43,0.58-0.02,0.86c-1,0.64-2.08,0.8-3.22,0.45
		c-2.17-0.67-3.57-1.98-3.76-4.45c-0.03-0.41,0.1-0.42,0.41-0.36c1.53,0.29,3.06,0.57,4.59,0.86c0.43,0.08,0.86,0.16,1.29,0.24
		c0.23,0.04,0.43,0.06,0.38,0.41c-0.05,0.3-0.18,0.38-0.45,0.33C61.56,72.96,61.47,72.97,61.37,72.96
		C61.37,72.96,61.37,72.96,61.37,72.96z"/>
	<path class="st0" d="M82.31,82.27c1.21-0.55,2.4-1.1,3.6-1.65c0.07-0.03,0.14-0.06,0.21-0.09c0.13-0.07,0.31-0.09,0.26-0.31
		c-0.06-0.24-0.24-0.14-0.37-0.12c-0.77,0.08-1.54,0.16-2.31,0.24c-0.07,0.01-0.14,0-0.3,0c1.03-0.9,2.12-1.42,3.37-1.63
		c0.82-0.14,1.63-0.1,2.45,0c0.18,0.02,0.33,0.08,0.4,0.25c0.24,0.55,0.39,1.09,0.09,1.69c-1.02,2.07-3.2,3-5.62,2.37
		c-0.46-0.12-0.9-0.27-1.32-0.48C82.61,82.48,82.45,82.44,82.31,82.27z"/>
	<path class="st0" d="M43.83,48.42c0.78,2.16-0.14,4.9-2.96,5.62c-0.68,0.17-1.37,0.19-2.08,0.1c-0.27-0.03-0.31-0.15-0.31-0.38
		c-0.02-0.9,0.19-1.74,0.63-2.52c0.73-1.3,1.84-2.21,3.12-2.98c-0.36,0.67-0.73,1.34-1.08,2.02c-0.06,0.11-0.22,0.24-0.08,0.36
		c0.15,0.12,0.24-0.06,0.33-0.14C42.22,49.81,43.02,49.12,43.83,48.42z"/>
	<path class="st0" d="M51.87,49.6c0.66,1.12,1.31,2.24,1.99,3.35c0.17,0.27,0.22,0.49,0.04,0.78c-0.19,0.3-0.4,0.06-0.6,0.05
		c-1.03-0.06-1.72-0.63-2.3-1.43c-0.66-0.91-1.3-1.82-1.41-2.99c-0.1-1.07,0.31-1.98,0.89-2.84c0.12-0.17,0.2-0.12,0.32-0.01
		c1.13,1.01,2.25,2.03,3.38,3.04c0.11,0.1,0.22,0.19,0.07,0.33c-0.13,0.13-0.15,0.41-0.47,0.28c-0.6-0.24-1.22-0.44-1.84-0.65
		c-0.04,0-0.07,0-0.11-0.01C51.85,49.54,51.86,49.57,51.87,49.6z"/>
	<path class="st0" d="M66.68,18.67c-0.39,0.21-0.73,0.37-1.05,0.57c-0.78,0.49-0.85,1-0.13,1.57c0.92,0.73,1.45,1.73,2.15,2.7
		c-1.18,0.16-2.23-0.06-3.19-0.68c-1.92-1.25-2.64-3.68-1.89-5.9c0.06-0.18,0.12-0.28,0.35-0.17C64.16,17.4,65.4,18.02,66.68,18.67z
		"/>
	<path class="st0" d="M111.42,81.46c0.96,0.5,1.88,0.98,2.8,1.46c0.27,0.14,0.56,0.25,0.8,0.43c0.42,0.32,0.76,0.24,1.09-0.12
		c0.07-0.08,0.17-0.13,0.25-0.2c0.68-0.52,0.7-0.53,1.14,0.2c0.4,0.67,0.75,1.38,1.12,2.07c0.05,0.09,0.13,0.19-0.04,0.25
		c-1.32,0.46-2.62,0.96-4.05,0.38c-1.9-0.77-2.88-2.21-3.14-4.2C111.39,81.67,111.41,81.6,111.42,81.46z"/>
	<path class="st0" d="M25.43,34.46c1.71,0.24,3.3,0.47,4.91,0.7c0.01,0.21-0.17,0.26-0.27,0.35c-1.73,1.45-4.04,1.77-5.85,0.79
		c-0.55-0.3-1.04-0.69-1.39-1.21c-0.47-0.7-0.3-1.24,0.51-1.51c0.97-0.32,1.97-0.46,2.97-0.63c0.33-0.06,0.66-0.12,0.99-0.17
		c0.16-0.02,0.34-0.11,0.43,0.17c0.08,0.27-0.05,0.35-0.24,0.45C26.83,33.71,26.19,34.05,25.43,34.46z"/>
	<path class="st0" d="M122.98,39.53c1.27-0.14,2.49-0.29,3.71-0.41c0.26-0.03,0.44-0.08,0.47-0.37c0.03-0.3-0.22-0.24-0.36-0.29
		c-0.63-0.21-1.26-0.41-1.9-0.61c-0.13-0.04-0.29-0.06-0.27-0.24c0.03-0.22,0.22-0.1,0.32-0.1c1.45,0.12,2.91,0.12,4.33,0.43
		c1.15,0.25,1.43,1.04,0.71,1.96c-1.12,1.44-3.3,1.9-5.17,1.08C124.05,40.63,123.39,40.12,122.98,39.53z"/>
	<path class="st0" d="M111.75,78.09c0.84-0.63,1.67-1.24,2.49-1.86c0.13-0.1,0.27-0.2,0.4-0.3c0.1-0.07,0.15-0.15,0.1-0.27
		c-0.06-0.13-0.16-0.1-0.27-0.07c-0.57,0.15-1.14,0.3-1.71,0.45c-0.2,0.05-0.4,0.14-0.5-0.18c-0.09-0.32,0.19-0.27,0.31-0.33
		c1.53-0.66,3.07-1.29,4.59-1.96c0.33-0.14,0.43-0.07,0.53,0.25c0.57,1.75-0.22,3.17-1.99,4.21
		C114.66,78.65,113.12,78.63,111.75,78.09z"/>
	<path class="st0" d="M72.31,78.27c-0.66-0.03-1.33-0.06-1.99-0.11c-0.23-0.02-0.34,0.01-0.42,0.27c-0.08,0.27,0.07,0.3,0.24,0.38
		c1.17,0.55,2.34,1.1,3.59,1.69c-1.43,0.84-2.86,1.04-4.35,0.45c-1.13-0.44-1.9-1.27-2.3-2.42c-0.32-0.93,0.04-1.43,1.02-1.38
		C69.56,77.22,70.97,77.58,72.31,78.27z"/>
	<path class="st0" d="M108.39,80.17c-0.02,1.13-0.19,2.1-0.67,2.99c-0.3,0.55-0.82,0.79-1.41,0.87c-0.37,0.05-0.65-0.14-0.87-0.41
		c-0.8-0.99-1.18-2.11-0.86-3.38c0.26-1.05,0.84-1.97,1.29-2.94c0.1-0.22,0.27-0.14,0.42-0.08c0.22,0.07,0.46,0.06,0.46,0.43
		c-0.03,1.21-0.01,2.42-0.01,3.64c0,0.07,0,0.14,0,0.31C107.3,81.11,107.79,80.68,108.39,80.17z"/>
	<path class="st0" d="M37.26,72.82c0.96,0.82,1.87,1.59,2.87,2.43c-1.35,0.2-2.58,0.22-3.68-0.56c-1.05-0.74-1.34-1.81-1.27-3.03
		c0.01-0.11,0.04-0.21,0.04-0.31c-0.01-0.3,0.12-0.3,0.37-0.22c1.01,0.35,2.04,0.68,3.05,1.02c0.12,0.04,0.27,0.04,0.25,0.25
		c-0.02,0.22-0.16,0.2-0.31,0.23C38.17,72.71,37.74,72.66,37.26,72.82z"/>
	<path class="st0" d="M11,53.09c0.14,0.44,0.26,0.81,0.37,1.18c0.06,0.22,0.15,0.27,0.38,0.17c0.94-0.42,1.89-0.81,2.83-1.21
		c0.23,0.87-0.05,1.63-0.84,2.16c-0.82,0.55-1.71,0.91-2.71,0.91c-0.5,0-1,0.02-1.5,0c-0.19-0.01-0.46,0.16-0.56-0.19
		c-0.08-0.3-0.22-0.54,0.08-0.85C9.71,54.6,10.31,53.87,11,53.09z"/>
	<path class="st0" d="M142.2,57.28c0.4,0.56,0.75,1.05,1.09,1.56c0.24,0.36,0.54,0.71,0.27,1.2c-0.3,0.55-0.74,0.87-1.37,0.92
		c-0.82,0.06-1.51-0.26-2.13-0.77c-0.62-0.51-1.11-1.16-1.68-1.73c-0.24-0.24,0.05-0.34,0.12-0.48c0.1-0.19,0.22-0.23,0.43-0.11
		c0.76,0.44,1.54,0.85,2.29,1.3c0.29,0.17,0.36,0.11,0.44-0.19C141.81,58.43,142,57.89,142.2,57.28z"/>
	<path class="st0" d="M91.44,73.88c-0.01,0.02-0.03,0.04-0.04,0.06c0-0.01-0.02-0.03-0.01-0.04c0.01-0.04,0.04-0.05,0.07-0.01
		C91.45,73.89,91.44,73.88,91.44,73.88z"/>
	<path class="st0" d="M36.91,118.89c0.01,0.04,0.03,0.09,0.02,0.11c-0.04,0.04-0.07-0.01-0.08-0.04
		C36.86,118.93,36.89,118.91,36.91,118.89z"/>
	<path class="st0" d="M96,80.07c-0.01,0.02-0.03,0.04-0.04,0.06c-0.01-0.02-0.01-0.04-0.02-0.05C95.96,80.07,95.98,80.07,96,80.07
		C96,80.07,96,80.07,96,80.07z"/>
	<path class="st0" d="M105.61,119.26c-0.04,0.03-0.08,0.05-0.11,0c0-0.01,0.04-0.04,0.06-0.05
		C105.58,119.22,105.6,119.23,105.61,119.26z"/>
	<path class="st0" d="M75.1,37.89c0.02-0.01,0.04-0.03,0.06-0.04c0.02,0.04,0.01,0.04-0.03,0.02C75.12,37.86,75.11,37.88,75.1,37.89
		C75.1,37.89,75.1,37.89,75.1,37.89z"/>
	<path class="st0" d="M113.27,123.08c-0.03,0.01-0.06,0.01-0.1,0.02c0.01-0.03,0.03-0.05,0.04-0.08
		C113.23,123.04,113.25,123.06,113.27,123.08z"/>
	<path class="st0" d="M95.1,46.14c-0.02,0.04-0.05,0.08-0.09,0.04c-0.01-0.01,0.01-0.07,0.01-0.11
		C95.06,46.1,95.08,46.12,95.1,46.14z"/>
	<path class="st0" d="M124.84,51.44c0.03,0.04,0.13,0.06,0.07,0.12c-0.04,0.04-0.11,0.01-0.14-0.05
		C124.8,51.49,124.82,51.46,124.84,51.44z"/>
	<path class="st0" d="M50.01,94.4c0-0.04-0.02-0.1,0-0.11c0.04-0.04,0.07,0.01,0.09,0.05C50.07,94.36,50.04,94.38,50.01,94.4z"/>
	<path class="st0" d="M89.77,55.52c-0.02-0.01-0.05-0.02-0.07-0.04c0.01-0.01,0.02-0.03,0.03-0.04
		C89.74,55.47,89.75,55.5,89.77,55.52C89.77,55.52,89.77,55.52,89.77,55.52z"/>
	<path class="st0" d="M118,30.23c0.04-0.02,0.08-0.06,0.11,0.01c0.01,0.01-0.03,0.04-0.05,0.07C118.04,30.28,118.02,30.25,118,30.23
		z"/>
	<path class="st0" d="M93.8,72.41c0.03-0.02,0.05-0.03,0.08-0.05c0,0.03,0,0.07,0,0.1C93.85,72.45,93.83,72.43,93.8,72.41z"/>
	<path class="st0" d="M52.99,80.07c-0.02,0.02-0.04,0.04-0.05,0.05c0-0.01-0.02-0.03-0.01-0.04C52.94,80.04,52.96,80.04,52.99,80.07
		C52.99,80.07,52.99,80.07,52.99,80.07z"/>
	<path class="st0" d="M51.87,49.6c-0.01-0.03-0.03-0.06-0.04-0.09c0.04,0,0.07,0,0.11,0.01C51.92,49.54,51.9,49.57,51.87,49.6z"/>
</g>
<g>
	<path class="st0" d="M199.26,104.64c0,3.35-0.68,6.37-2.03,9.04c-1.35,2.67-3.34,4.76-5.95,6.28s-5.7,2.27-9.28,2.27
		c-4.29,0-7.83-1.03-10.62-3.1c-1.98-1.49-3.58-3.47-4.82-5.96c-1.24-2.48-1.85-4.9-1.85-7.24c0-1.36,0.37-2.53,1.11-3.5
		c0.74-0.97,1.68-1.46,2.83-1.46c0.93,0,1.71,0.38,2.36,1.13c0.64,0.76,1.19,1.88,1.65,3.37c0.55,1.77,1.15,3.24,1.79,4.42
		c0.64,1.19,1.55,2.16,2.71,2.93c1.17,0.77,2.7,1.15,4.6,1.15c2.61,0,4.73-0.78,6.36-2.33c1.63-1.55,2.45-3.48,2.45-5.8
		c0-1.84-0.44-3.33-1.32-4.48c-0.88-1.15-2.02-2.02-3.41-2.63c-1.39-0.61-3.26-1.25-5.59-1.93c-3.12-0.93-5.74-2.02-7.84-3.27
		c-2.11-1.25-3.78-2.95-5.01-5.1s-1.85-4.83-1.85-8.04c0-3.05,0.65-5.76,1.96-8.13c1.3-2.37,3.19-4.19,5.66-5.46
		c2.47-1.27,5.38-1.91,8.72-1.91c2.67,0,4.98,0.42,6.92,1.27c1.95,0.84,3.56,1.97,4.85,3.37s2.22,2.87,2.82,4.41
		c0.59,1.54,0.89,3.04,0.89,4.5c0,1.34-0.37,2.54-1.11,3.61s-1.67,1.61-2.77,1.61c-1.01,0-1.77-0.32-2.3-0.96
		c-0.52-0.64-1.09-1.7-1.71-3.16c-0.79-2.09-1.74-3.72-2.85-4.9c-1.11-1.17-2.89-1.76-5.34-1.76c-2.27,0-4.11,0.64-5.5,1.91
		c-1.39,1.27-2.09,2.8-2.09,4.59c0,1.11,0.24,2.07,0.71,2.87s1.13,1.5,1.96,2.08s1.67,1.03,2.52,1.36c0.85,0.33,2.25,0.81,4.21,1.44
		c2.45,0.73,4.67,1.54,6.66,2.42c1.99,0.88,3.68,1.95,5.07,3.21s2.48,2.85,3.26,4.78S199.26,101.84,199.26,104.64z"/>
	<path class="st0" d="M234.55,115l-2.08-6.96H214.8l-2.08,7.11c-0.81,2.77-1.5,4.65-2.08,5.62c-0.57,0.97-1.51,1.46-2.82,1.46
		c-1.11,0-2.09-0.52-2.94-1.55c-0.85-1.03-1.28-2.21-1.28-3.52c0-0.76,0.1-1.54,0.3-2.34c0.2-0.81,0.52-1.93,0.98-3.37l11.12-36
		c0.32-1.03,0.7-2.28,1.14-3.72c0.45-1.45,0.92-2.65,1.42-3.61c0.5-0.96,1.17-1.73,1.99-2.33c0.82-0.59,1.83-0.89,3.04-0.89
		c1.23,0,2.25,0.3,3.07,0.89c0.82,0.59,1.48,1.36,1.99,2.29s0.93,1.94,1.28,3.01c0.35,1.07,0.79,2.5,1.32,4.29l11.36,35.77
		c0.89,2.72,1.33,4.7,1.33,5.94c0,1.29-0.42,2.46-1.26,3.54c-0.84,1.07-1.85,1.61-3.04,1.61c-0.69,0-1.29-0.16-1.78-0.47
		s-0.91-0.74-1.25-1.29c-0.34-0.54-0.7-1.37-1.08-2.5C235.16,116.84,234.82,115.85,234.55,115z M217.11,99.61h12.99l-6.55-22.88
		L217.11,99.61z"/>
	<path class="st0" d="M253.76,72.27l9.84,37.17L273.48,72c0.51-1.97,0.9-3.33,1.16-4.1c0.26-0.77,0.68-1.46,1.28-2.08
		c0.59-0.62,1.4-0.93,2.43-0.93c0.75,0,1.45,0.24,2.09,0.72c0.64,0.48,1.15,1.12,1.51,1.91c0.37,0.79,0.55,1.59,0.55,2.4
		c0,0.56-0.06,1.15-0.18,1.8c-0.12,0.64-0.27,1.27-0.44,1.89c-0.18,0.62-0.36,1.25-0.53,1.91l-10.53,36.23
		c-0.38,1.39-0.75,2.7-1.13,3.95c-0.38,1.25-0.81,2.34-1.3,3.29c-0.49,0.95-1.15,1.72-1.97,2.33s-1.82,0.91-3.01,0.91
		c-1.19,0-2.19-0.3-3.01-0.89c-0.82-0.59-1.48-1.37-1.99-2.34s-0.94-2.07-1.32-3.31c-0.38-1.23-0.75-2.55-1.13-3.93l-10.35-35.92
		c-0.18-0.66-0.36-1.3-0.55-1.93c-0.19-0.63-0.35-1.31-0.47-2.04c-0.13-0.73-0.19-1.35-0.19-1.85c0-1.29,0.41-2.46,1.22-3.52
		c0.81-1.06,1.83-1.59,3.05-1.59c1.5,0,2.56,0.59,3.19,1.76C252.47,67.82,253.11,69.69,253.76,72.27z"/>
	<path class="st0" d="M317.75,74.5h-19.84v13.61h18.27c1.34,0,2.35,0.38,3.01,1.15c0.66,0.77,0.99,1.78,0.99,3.04
		s-0.33,2.29-0.98,3.08s-1.66,1.19-3.02,1.19h-18.27v15.77h20.52c1.38,0,2.43,0.41,3.13,1.23c0.7,0.82,1.05,1.91,1.05,3.27
		c0,1.31-0.35,2.38-1.05,3.2c-0.7,0.82-1.75,1.23-3.13,1.23H294.5c-1.92,0-3.3-0.54-4.14-1.63c-0.84-1.08-1.26-2.84-1.26-5.26V72.72
		c0-1.61,0.19-2.93,0.56-3.95c0.38-1.02,0.96-1.76,1.76-2.23s1.82-0.7,3.07-0.7h23.25c1.4,0,2.45,0.4,3.13,1.19
		c0.68,0.79,1.02,1.83,1.02,3.12c0,1.31-0.34,2.36-1.02,3.16C320.2,74.1,319.15,74.5,317.75,74.5z"/>
	<path class="st0" d="M335.07,65.84h11.47c2.98,0,5.54,0.35,7.68,1.06s4.07,2.03,5.81,3.97c4.53,4.94,6.79,12.45,6.79,22.54
		c0,3.33-0.23,6.37-0.68,9.11c-0.46,2.75-1.16,5.22-2.11,7.43s-2.16,4.18-3.65,5.92c-1.17,1.34-2.44,2.41-3.83,3.21
		c-1.38,0.81-2.87,1.38-4.46,1.7c-1.59,0.33-3.39,0.49-5.38,0.49h-11.47c-1.6,0-2.81-0.31-3.62-0.93c-0.81-0.62-1.34-1.49-1.59-2.61
		s-0.37-2.58-0.37-4.37V72.72c0-2.42,0.42-4.17,1.27-5.26C331.79,66.38,333.17,65.84,335.07,65.84z M338.48,74.72v37.63h6.67
		c1.46,0,2.61-0.05,3.44-0.15c0.83-0.1,1.69-0.35,2.58-0.76c0.89-0.4,1.66-0.97,2.31-1.7c2.95-3.18,4.42-8.65,4.42-16.41
		c0-5.47-0.65-9.57-1.94-12.29s-2.89-4.46-4.79-5.2c-1.9-0.74-4.19-1.12-6.88-1.12H338.48z"/>
	<path class="st0" d="M401.71,65.84h11.48c2.98,0,5.54,0.35,7.68,1.06s4.07,2.03,5.81,3.97c4.53,4.94,6.79,12.45,6.79,22.54
		c0,3.33-0.23,6.37-0.68,9.11c-0.46,2.75-1.16,5.22-2.11,7.43s-2.17,4.18-3.65,5.92c-1.17,1.34-2.44,2.41-3.83,3.21
		c-1.38,0.81-2.87,1.38-4.46,1.7c-1.59,0.33-3.39,0.49-5.38,0.49h-11.48c-1.6,0-2.81-0.31-3.62-0.93c-0.81-0.62-1.34-1.49-1.59-2.61
		s-0.37-2.58-0.37-4.37V72.72c0-2.42,0.42-4.17,1.27-5.26C398.43,66.38,399.81,65.84,401.71,65.84z M405.12,74.72v37.63h6.67
		c1.46,0,2.61-0.05,3.44-0.15c0.83-0.1,1.69-0.35,2.58-0.76c0.89-0.4,1.66-0.97,2.31-1.7c2.95-3.18,4.42-8.65,4.42-16.41
		c0-5.47-0.65-9.57-1.94-12.29s-2.89-4.46-4.79-5.2c-1.9-0.74-4.19-1.12-6.88-1.12H405.12z"/>
	<path class="st0" d="M453.03,97.56h-3.08v17.81c0,2.34-0.41,4.07-1.22,5.18c-0.81,1.11-1.87,1.66-3.17,1.66
		c-1.4,0-2.49-0.58-3.26-1.74c-0.77-1.16-1.16-2.86-1.16-5.1V72.72c0-2.42,0.42-4.17,1.28-5.26c0.85-1.08,2.22-1.63,4.12-1.63h14.32
		c1.98,0,3.67,0.11,5.07,0.32s2.67,0.65,3.8,1.3c1.36,0.73,2.57,1.78,3.62,3.14s1.84,2.94,2.39,4.75c0.54,1.8,0.82,3.71,0.82,5.73
		c0,4.14-0.91,7.44-2.74,9.91c-1.83,2.47-4.6,4.22-8.32,5.26c1.56,1.06,3.05,2.62,4.48,4.69c1.42,2.07,2.69,4.27,3.81,6.6
		s1.99,4.44,2.61,6.31c0.62,1.88,0.93,3.17,0.93,3.88c0,0.73-0.18,1.46-0.55,2.17c-0.37,0.72-0.87,1.29-1.5,1.7
		c-0.63,0.42-1.36,0.62-2.19,0.62c-0.99,0-1.82-0.3-2.49-0.89c-0.67-0.59-1.25-1.34-1.73-2.25c-0.48-0.91-1.14-2.24-1.97-4.01
		l-3.53-7.49c-1.27-2.75-2.4-4.84-3.4-6.28c-1-1.44-2.01-2.42-3.04-2.95C455.89,97.83,454.59,97.56,453.03,97.56z M458.07,74.27
		h-8.12v15.24h7.89c2.12,0,3.89-0.23,5.34-0.7c1.44-0.47,2.54-1.26,3.31-2.38c0.76-1.12,1.14-2.67,1.14-4.63
		c0-1.54-0.31-2.89-0.92-4.06c-0.61-1.17-1.46-2.05-2.55-2.63C463.12,74.55,461.1,74.27,458.07,74.27z"/>
	<path class="st0" d="M513.52,74.5h-19.84v13.61h18.27c1.34,0,2.35,0.38,3.01,1.15c0.66,0.77,0.99,1.78,0.99,3.04
		s-0.33,2.29-0.98,3.08s-1.66,1.19-3.02,1.19h-18.27v15.77h20.52c1.38,0,2.43,0.41,3.13,1.23c0.7,0.82,1.05,1.91,1.05,3.27
		c0,1.31-0.35,2.38-1.05,3.2c-0.7,0.82-1.75,1.23-3.13,1.23h-23.93c-1.92,0-3.3-0.54-4.14-1.63c-0.84-1.08-1.26-2.84-1.26-5.26
		V72.72c0-1.61,0.19-2.93,0.56-3.95c0.38-1.02,0.96-1.76,1.76-2.23c0.8-0.47,1.82-0.7,3.07-0.7h23.25c1.4,0,2.45,0.4,3.13,1.19
		c0.68,0.79,1.02,1.83,1.02,3.12c0,1.31-0.34,2.36-1.02,3.16C515.97,74.1,514.93,74.5,513.52,74.5z"/>
	<path class="st0" d="M553.2,115l-2.08-6.96h-17.67l-2.08,7.11c-0.81,2.77-1.5,4.65-2.08,5.62c-0.57,0.97-1.51,1.46-2.82,1.46
		c-1.11,0-2.09-0.52-2.94-1.55c-0.85-1.03-1.28-2.21-1.28-3.52c0-0.76,0.1-1.54,0.3-2.34c0.2-0.81,0.52-1.93,0.98-3.37l11.12-36
		c0.32-1.03,0.7-2.28,1.14-3.72c0.44-1.45,0.92-2.65,1.42-3.61s1.17-1.73,1.99-2.33c0.82-0.59,1.83-0.89,3.04-0.89
		c1.23,0,2.25,0.3,3.07,0.89c0.82,0.59,1.48,1.36,1.99,2.29s0.93,1.94,1.27,3.01c0.35,1.07,0.79,2.5,1.32,4.29l11.36,35.77
		c0.89,2.72,1.33,4.7,1.33,5.94c0,1.29-0.42,2.46-1.26,3.54c-0.84,1.07-1.85,1.61-3.04,1.61c-0.69,0-1.29-0.16-1.78-0.47
		c-0.5-0.32-0.91-0.74-1.25-1.29s-0.7-1.37-1.08-2.5C553.8,116.84,553.47,115.85,553.2,115z M535.76,99.61h12.99l-6.55-22.88
		L535.76,99.61z"/>
	<path class="st0" d="M583.74,112.92l-6.97-35.32v38.27c0,2.12-0.37,3.71-1.11,4.76s-1.72,1.59-2.95,1.59
		c-1.19,0-2.16-0.52-2.91-1.57s-1.13-2.64-1.13-4.78V72c0-2.42,0.49-4.05,1.48-4.9c0.99-0.84,2.32-1.27,4-1.27h2.73
		c1.64,0,2.83,0.19,3.57,0.57s1.29,1.06,1.65,2.04s0.76,2.58,1.22,4.8l6.32,30.37l6.32-30.37c0.45-2.22,0.86-3.82,1.22-4.8
		c0.36-0.98,0.9-1.66,1.65-2.04s1.93-0.57,3.57-0.57h2.73c1.68,0,3.01,0.42,4,1.27s1.48,2.48,1.48,4.9v43.87
		c0,2.12-0.37,3.71-1.11,4.76c-0.74,1.06-1.74,1.59-2.98,1.59c-1.17,0-2.12-0.53-2.88-1.59c-0.75-1.06-1.13-2.65-1.13-4.76V77.6
		l-6.97,35.32c-0.46,2.29-0.83,3.98-1.11,5.05c-0.29,1.07-0.82,2.05-1.59,2.93c-0.77,0.88-1.84,1.32-3.2,1.32
		c-1.03,0-1.9-0.28-2.61-0.85c-0.71-0.57-1.26-1.29-1.66-2.17c-0.4-0.88-0.71-1.86-0.93-2.93
		C584.21,115.19,583.97,114.08,583.74,112.92z"/>
	<path class="st0" d="M652.68,104.64c0,3.35-0.68,6.37-2.03,9.04c-1.35,2.67-3.34,4.76-5.95,6.28s-5.7,2.27-9.28,2.27
		c-4.29,0-7.83-1.03-10.62-3.1c-1.98-1.49-3.58-3.47-4.82-5.96c-1.24-2.48-1.85-4.9-1.85-7.24c0-1.36,0.37-2.53,1.11-3.5
		c0.74-0.97,1.69-1.46,2.83-1.46c0.93,0,1.71,0.38,2.36,1.13c0.64,0.76,1.19,1.88,1.65,3.37c0.55,1.77,1.15,3.24,1.79,4.42
		c0.64,1.19,1.55,2.16,2.71,2.93c1.17,0.77,2.7,1.15,4.6,1.15c2.61,0,4.73-0.78,6.36-2.33c1.63-1.55,2.45-3.48,2.45-5.8
		c0-1.84-0.44-3.33-1.32-4.48c-0.88-1.15-2.02-2.02-3.41-2.63c-1.39-0.61-3.26-1.25-5.59-1.93c-3.12-0.93-5.74-2.02-7.84-3.27
		c-2.11-1.25-3.78-2.95-5.01-5.1s-1.85-4.83-1.85-8.04c0-3.05,0.65-5.76,1.96-8.13c1.3-2.37,3.19-4.19,5.66-5.46
		c2.47-1.27,5.38-1.91,8.72-1.91c2.67,0,4.98,0.42,6.92,1.27c1.95,0.84,3.56,1.97,4.85,3.37s2.22,2.87,2.82,4.41
		c0.59,1.54,0.89,3.04,0.89,4.5c0,1.34-0.37,2.54-1.11,3.61s-1.67,1.61-2.77,1.61c-1.01,0-1.77-0.32-2.3-0.96
		c-0.52-0.64-1.09-1.7-1.71-3.16c-0.79-2.09-1.74-3.72-2.85-4.9c-1.11-1.17-2.89-1.76-5.34-1.76c-2.27,0-4.11,0.64-5.5,1.91
		c-1.39,1.27-2.09,2.8-2.09,4.59c0,1.11,0.24,2.07,0.71,2.87c0.47,0.81,1.13,1.5,1.96,2.08c0.83,0.58,1.67,1.03,2.52,1.36
		c0.85,0.33,2.25,0.81,4.21,1.44c2.45,0.73,4.67,1.54,6.66,2.42c1.99,0.88,3.68,1.95,5.07,3.21c1.39,1.26,2.48,2.85,3.26,4.78
		C652.29,99.47,652.68,101.84,652.68,104.64z"/>
</g>
</svg>
