<?xml version="1.0" encoding="utf-8"?>
<!-- Generator: Adobe Illustrator 26.0.2, SVG Export Plug-In . SVG Version: 6.00 Build 0)  -->
<svg version="1.1" id="Layer_1" xmlns="http://www.w3.org/2000/svg" xmlns:xlink="http://www.w3.org/1999/xlink" x="0px" y="0px"
	 viewBox="0 0 655.56 172.88" style="enable-background:new 0 0 655.56 172.88;" xml:space="preserve">
<style type="text/css">
	.st0{fill:#29763C;}
	.st1{fill:#8D5B31;}
	.st2{fill:#359F49;}
	.st3{fill:#80C343;}
	.st4{fill:#58351E;}
	.st5{fill:#FFFFFE;}
	.st6{opacity:0.9;}
</style>
<g>
	<path class="st0" d="M74.52,8.61c0.87,2.32,0.58,4.45-1.13,6.3c-1.29,1.4-2.97,1.76-4.85,1.71c0.67-1.09,1.31-2.13,1.95-3.17
		c0.09-0.14,0.18-0.28,0.27-0.43c0.07-0.11,0.17-0.22,0.02-0.36c-0.17-0.16-0.24,0-0.34,0.08c-0.67,0.55-1.34,1.11-2.02,1.67
		c-0.09,0.08-0.16,0.19-0.35,0.2c0.38-1.07,0.9-2.05,1.58-2.94c1.08-1.4,2.49-2.32,4.16-2.87c0.15-0.05,0.33-0.03,0.43-0.19
		C74.33,8.61,74.43,8.61,74.52,8.61z"/>
	<path class="st1" d="M80.06,72.85c1.1-0.75,2.19-1.49,3.29-2.24c6.19-4.2,12.39-8.4,18.58-12.6c0.13-0.09,0.26-0.16,0.4-0.22
		c1.21-0.52,2.41-1.04,3.63-1.53c1.72-0.69,3.54-0.77,5.34-0.62c3.49,0.28,6.9,1.04,10.13,2.41c4.57,1.94,7.72,5.36,9.77,9.82
		c2.01,4.37,2.97,8.97,2.68,13.78c-0.37,6.17-2.73,11.52-6.91,16.07c-2.39,2.6-5.25,4.57-8.28,6.34c-4.57,2.67-9.29,5.05-13.97,7.52
		c-2.8,1.47-5.59,2.96-8.29,4.63c-3.96,2.45-6.15,6.03-6.85,10.58c-0.61,3.96-0.34,7.91,0.32,11.83c0.54,3.22,1.46,6.34,2.37,9.47
		c0.01,0.04,0.03,0.09,0.05,0.13c0.18,0.75,0.09,0.92-0.63,1.15c-4.19,1.34-8.47,2.18-12.86,2.41c-5.55,0.29-10.99-0.38-16.34-1.88
		c-0.38-0.11-0.44-0.24-0.35-0.59c0.73-3.13,1.55-6.23,2.12-9.39c0.54-2.99,0.88-6,0.59-9.04c-0.31-3.32-1.12-6.47-3.12-9.23
		c-1.41-1.94-3.28-3.3-5.37-4.43c-6.53-3.5-13.13-6.89-19.61-10.49c-3.51-1.95-6.75-4.26-9.54-7.18c-3.69-3.88-5.98-8.43-6.68-13.75
		c-0.89-6.68,0.24-12.97,3.9-18.69c3.07-4.8,7.42-7.82,13.04-8.88c3.26-0.62,6.49-0.33,9.69,0.46c4.16,1.03,7.92,2.92,11.48,5.27
		c5.11,3.37,10.04,7.01,15.05,10.53c0.04,0.03,0.07,0.06,0.17,0.14c-0.54,0.05-1.01,0.01-1.48-0.04c-3.71-0.37-7.06-1.78-10.27-3.58
		c-3.34-1.87-6.59-3.87-9.96-5.68c-5.53-2.96-11.95-2.27-16.7,1.81c-4.11,3.53-6.01,8.05-5.89,13.43c0.13,5.45,2.64,9.63,6.96,12.81
		c2.32,1.7,4.91,2.93,7.49,4.16c4.28,2.04,8.68,3.8,12.99,5.77c4.42,2.02,8.86,3.99,13.22,6.13c1.87,0.92,3.47,2.18,5.03,3.5
		c0.34,0.29,0.69,0.56,1.03,0.84c0.14,0.12,0.23,0.15,0.37-0.02c3.63-4.56,8.53-7.27,13.78-9.44c5.35-2.22,10.71-4.4,15.98-6.79
		c3.65-1.65,7.26-3.39,10.61-5.61c2.85-1.89,5.15-4.29,6.5-7.48c1.81-4.26,1.53-8.51-0.24-12.71c-1.6-3.8-4.1-6.81-7.9-8.58
		c-4.26-1.99-8.55-1.79-12.78,0.14c-2.79,1.27-5.37,2.92-7.99,4.5c-2.85,1.72-5.76,3.3-8.98,4.22
		C83.83,72.52,81.99,72.86,80.06,72.85z"/>
	<path class="st1" d="M75.91,86.51c5.35,0,9.63,4.28,9.63,9.63c0,5.27-4.36,9.5-9.83,9.47c-5.55-0.04-9.41-4.59-9.32-9.86
		C66.48,90.63,70.65,86.51,75.91,86.51z"/>
	<path class="st2" d="M102.45,25.99c-1.3-0.78-2.59-1.15-3.96-1.28c-2.6-0.26-5.2-0.07-7.79,0.13c-1.17,0.09-2.35,0.2-3.53,0.3
		c0-0.19,0.18-0.23,0.29-0.31c5.05-3.54,10.67-5.03,16.81-4.65c3.01,0.19,5.88,0.93,8.66,2.07c0.17,0.07,0.34,0.15,0.49,0.24
		c0.66,0.38,0.87,0.84,0.65,1.58c-0.5,1.69-1.36,3.21-2.46,4.58c-2.94,3.63-6.79,5.63-11.39,6.18c-3.87,0.46-7.49-0.29-10.79-2.4
		c-0.98-0.63-1.87-1.38-2.68-2.22c-0.04-0.04-0.08-0.09-0.12-0.14c-0.39-0.51-0.38-0.59,0.19-0.9c3.33-1.82,6.9-2.78,10.67-3.08
		C99.1,25.95,100.7,25.98,102.45,25.99z"/>
	<path class="st0" d="M58.91,134.54c-4.33-1.7-8.75-2.58-13.4-1.85c0.02,0.19,0.17,0.14,0.27,0.16c3.17,0.66,6.26,1.54,9.15,3.03
		c1.5,0.77,2.91,1.69,4.22,2.75c0.22,0.17,0.23,0.25-0.01,0.42c-3.16,2.24-6.63,3.52-10.54,3.15c-5.66-0.53-12.05-3.7-14.17-11.69
		c-0.13-0.47-0.21-0.96-0.34-1.43c-0.08-0.31,0.01-0.46,0.29-0.61c1.76-0.91,3.66-1.28,5.62-1.34c5.28-0.16,10.21,1.1,14.77,3.76
		c1.49,0.87,2.81,1.96,3.9,3.31C58.76,134.31,58.83,134.43,58.91,134.54z"/>
	<path class="st0" d="M92.3,141.53c4.22-3.51,9.15-5.2,14.62-5.88c-0.86-0.34-1.65-0.45-2.46-0.51c-2.36-0.18-4.67,0.23-6.95,0.77
		c-1.43,0.34-2.83,0.76-4.24,1.18c-0.11,0.03-0.23,0.06-0.43,0.11c0.25-0.46,0.53-0.79,0.82-1.11c1.76-1.94,3.97-3.19,6.36-4.16
		c3.89-1.57,7.93-2.26,12.12-2.02c1.79,0.1,3.55,0.45,5.22,1.16c0.21,0.09,0.32,0.17,0.28,0.43c-0.62,3.57-2.02,6.74-4.77,9.18
		c-2.88,2.54-6.25,3.97-10.09,4.22c-3.63,0.23-6.85-0.97-9.85-2.9c-0.18-0.12-0.36-0.24-0.53-0.36
		C92.35,141.63,92.34,141.59,92.3,141.53z"/>
	<path class="st3" d="M35.88,118.88c-0.63-0.46-1.26-0.92-1.9-1.36c-2.99-2.06-6.23-3.49-9.84-4.04c-0.18-0.03-0.35-0.04-0.56-0.01
		c4.56,2.4,8.73,5.26,11.68,9.67c-0.99,0.4-2,0.68-3.02,0.88c-5.3,1.04-9.86-0.48-13.8-4.05c-3.29-2.99-4.84-6.76-4.88-11.18
		c-0.01-0.66,0.01-1.32,0.06-1.97c0.02-0.34,0.16-0.43,0.45-0.49c1.65-0.34,3.3-0.29,4.92,0.07c5.91,1.3,10.89,4.21,14.83,8.82
		c0.92,1.07,1.66,2.27,2.12,3.62C35.93,118.84,35.9,118.86,35.88,118.88z"/>
	<path class="st2" d="M112.95,123c0.45-1.09,1.15-2.01,1.92-2.88c2.56-2.88,5.77-4.79,9.35-6.12c2.6-0.97,5.29-1.5,8.07-1.52
		c1.01-0.01,2.02,0.08,3.02,0.23c0.38,0.06,0.53,0.2,0.53,0.61c-0.01,6.47-2.95,11.17-8.62,14.17c-4.1,2.17-8.34,2.09-12.63,0.59
		c-0.52-0.18-1.02-0.39-1.57-0.59c3.24-4.03,7.57-6.42,12.14-8.47c-4.24,0.05-8.04,1.45-11.57,3.67c-0.19,0.12-0.39,0.24-0.59,0.36
		C112.98,123.03,112.97,123.01,112.95,123z"/>
	<path class="st0" d="M27.21,46.32c0.75-0.3,1.49-0.61,2.24-0.9c3.11-1.18,6.31-1.83,9.65-1.69c0.38,0.02,0.47,0.07,0.32,0.46
		c-1.99,5.25-5.78,8.22-11.33,8.88c-3.65,0.44-6.84-0.76-9.65-3.05c-0.31-0.25-0.58-0.54-0.91-0.78c-0.31-0.23-0.27-0.42-0.09-0.72
		c1.02-1.65,2.38-2.95,3.97-4.03c3.68-2.5,7.73-3.9,12.21-3.95c1.19-0.01,2.38,0.13,3.58,0.55C33.52,42.27,29.84,43.28,27.21,46.32z
		"/>
	<path class="st3" d="M124.68,50.67c-1.64-1.72-3.65-2.85-5.83-3.72c-1.05-0.42-2.12-0.77-3.21-1.09c-0.15-0.05-0.31-0.1-0.58-0.19
		c1.15-0.37,2.21-0.54,3.3-0.54c5.44,0.01,10.1,2.01,14.14,5.58c0.82,0.72,1.52,1.55,2.15,2.44c0.1,0.13,0.22,0.24,0.03,0.42
		c-2.07,1.97-4.4,3.48-7.27,3.96c-6.52,1.08-12.39-2.34-14.71-8.52c-0.21-0.55-0.21-0.55,0.38-0.59c3.19-0.25,6.24,0.36,9.22,1.44
		c0.77,0.28,1.54,0.59,2.31,0.89c0.04,0.06,0.11,0.09,0.15,0.05C124.81,50.73,124.71,50.71,124.68,50.67z"/>
	<path class="st0" d="M49.17,94.08c0.47,1.27,1.35,2.25,2.31,3.16c1.58,1.49,3.38,2.67,5.24,3.78c0.17,0.1,0.34,0.2,0.52,0.31
		c-0.48,0.15-1.3,0.15-2.17,0.02c-3.53-0.55-6.5-2.25-9.16-4.54c-2.3-1.98-4.14-4.32-5.36-7.13c-0.21-0.48-0.1-0.67,0.32-0.92
		c1.98-1.17,4.1-1.87,6.4-1.85c4.36,0.05,9.94,2.41,12.14,8.31c0.49,1.32,0.82,2.69,1.03,4.08c0.02,0.13,0.02,0.27,0.03,0.43
		c-0.41-0.06-0.74-0.25-1.09-0.38c-2.14-0.81-4.32-1.54-6.28-2.76c-1.15-0.72-2.25-1.53-3.37-2.3c-0.15-0.1-0.31-0.19-0.47-0.29
		c-0.02-0.04-0.04-0.08-0.09-0.05C49.15,93.98,49.17,94.04,49.17,94.08z"/>
	<path class="st0" d="M87.3,96.74c3.59-2.45,7.39-4.29,11.72-5.15c-0.62-0.37-1.89-0.53-2.85-0.47c-2.69,0.18-5.21,1-7.71,1.93
		c-0.13,0.05-0.25,0.1-0.39,0.15c0.19-0.47,0.76-1.18,1.51-1.85c2.14-1.93,4.69-3.08,7.44-3.8c3.56-0.92,7.12-1.06,10.7-0.06
		c0.4,0.11,0.48,0.28,0.44,0.66c-0.86,6.8-5.96,9.97-10.25,10.92c-3.32,0.74-6.39-0.08-9.33-1.62
		C88.15,97.23,87.74,96.98,87.3,96.74z"/>
	<path class="st0" d="M78.58,61.6c-1.7-1.89-3.3-3.68-4.9-5.46c-0.62-0.69-1.26-1.38-1.87-2.09c-0.34-0.4-0.49,0.01-0.7,0.13
		c-0.3,0.17-0.02,0.31,0.07,0.42c2.01,2.35,3.74,4.88,4.75,7.84c0.24,0.71,0.42,1.44,0.6,2.16c0.09,0.36-0.02,0.47-0.39,0.49
		c-2.19,0.11-4.14-0.6-5.91-1.79c-4.28-2.84-6.16-6.91-5.89-11.98c0.1-1.88,0.74-3.61,1.81-5.18c0.18-0.27,0.34-0.3,0.64-0.2
		c2.15,0.71,3.97,1.95,5.6,3.49c2.6,2.46,4.57,5.33,5.66,8.77C78.39,59.25,78.59,60.34,78.58,61.6z"/>
	<path class="st0" d="M15.41,99.34c-0.15-0.9-0.3-1.68-0.4-2.46c-0.34-2.52-1.22-4.85-2.33-7.11c-0.11-0.23-0.21-0.48-0.32-0.71
		c-0.07-0.14-0.07-0.34-0.34-0.21c-0.21,0.1-0.29,0.18-0.21,0.44c0.76,2.32,1.11,4.7,1.09,7.14c-0.01,1.5-0.19,2.99-0.46,4.47
		c-0.02,0.1-0.06,0.2-0.1,0.32c-3.84-2.07-6.28-5.12-6.88-9.51c-0.7-5.16,1.16-9.22,5.26-12.33c0.26-0.2,0.41-0.13,0.62,0.06
		c2.13,1.93,3.46,4.34,4.29,7.04c1.27,4.13,1.36,8.28-0.04,12.41C15.54,98.99,15.5,99.11,15.41,99.34z"/>
	<path class="st2" d="M94.6,45.26c0.83-1.71,2.11-3.03,3.62-4.15c3.24-2.4,6.87-3.75,10.92-3.92c0.94-0.04,1.86,0.03,2.79,0.17
		c0.31,0.04,0.39,0.16,0.39,0.47c0.02,4.9-2.18,8.5-6.42,10.86c-3.28,1.83-6.69,1.77-10.16,0.55c-0.36-0.13-0.71-0.28-1.1-0.43
		c1.23-1.52,2.66-2.75,4.25-3.81c1.58-1.05,3.28-1.88,5.13-2.72c-0.45,0-0.76-0.02-1.08,0c-0.34,0.02-0.67,0.07-1,0.13
		c-2.46,0.38-4.69,1.34-6.79,2.64c-0.15,0.1-0.32,0.18-0.47,0.27C94.65,45.3,94.62,45.28,94.6,45.26z"/>
	<path class="st4" d="M129.77,142.69c0.58,0.62,1.1,1.19,1.63,1.75c1.41,1.49,2.81,2.99,4.23,4.47c0.29,0.31,0.3,0.53-0.05,0.78
		c-0.51,0.37-0.97,0.8-1.38,1.28c-0.24,0.28-0.44,0.28-0.7-0.02c-1.5-1.76-2.97-3.54-4.54-5.24c-1.68-1.82-3.44-3.57-5.19-5.34
		c-0.32-0.33-0.33-0.56-0.01-0.88c0.35-0.35,0.68-0.71,0.98-1.1c0.3-0.39,0.61-0.4,1.03-0.22c1.84,0.82,3.69,1.6,5.54,2.42
		c1.76,0.78,3.5,1.59,5.26,2.38c0.2,0.09,0.41,0.17,0.66,0.27c0.01-0.39-0.14-0.68-0.25-0.97c-1.27-3.5-2.65-6.96-4.05-10.41
		c-0.25-0.63-0.24-0.69,0.28-1.13c0.32-0.27,0.64-0.52,0.95-0.79c0.66-0.56,0.55-0.63,1.19,0.1c1.19,1.36,2.39,2.71,3.57,4.08
		c1.87,2.16,3.96,4.1,5.9,6.18c0.45,0.48,0.46,0.51-0.06,0.92c-0.45,0.35-0.86,0.73-1.24,1.15c-0.39,0.43-0.49,0.43-0.87,0
		c-1.51-1.71-3.01-3.43-4.51-5.14c-0.33-0.37-0.67-0.74-1.02-1.12c-0.16,0.25-0.01,0.41,0.04,0.56c0.97,2.79,2.05,5.55,3.14,8.3
		c0.13,0.33,0.11,0.58-0.16,0.81c-0.01,0.01-0.02,0.02-0.03,0.03c-0.9,0.93-0.95,0.94-2.1,0.42c-2.55-1.15-5.09-2.29-7.64-3.43
		C130.23,142.75,130.09,142.64,129.77,142.69z"/>
	<path class="st0" d="M74.49,36.98c-1.28-0.99-2.56-1.98-3.85-2.97c-1.17-0.89-2.35-1.76-3.5-2.68c-0.37-0.3-0.48-0.04-0.67,0.16
		c-0.3,0.31,0.08,0.36,0.19,0.46c1.97,1.67,3.82,3.44,5.23,5.63c0.47,0.73,0.88,1.5,1.23,2.3c0.22,0.5,0.22,0.5-0.33,0.65
		c-1.52,0.41-3.05,0.32-4.53-0.14c-4.81-1.52-7.71-4.78-8.6-9.75c-0.3-1.66-0.11-3.33,0.27-4.96c0.21-0.88,0.61-1.13,1.5-0.97
		c2.53,0.46,4.72,1.64,6.73,3.19c2.52,1.95,4.57,4.28,5.83,7.25c0.19,0.45,0.33,0.92,0.48,1.38C74.52,36.65,74.62,36.82,74.49,36.98
		L74.49,36.98z"/>
	<path class="st0" d="M139.96,105.18c-0.69-3.62-0.77-7.21,0.25-10.77c0.09-0.32,0.17-0.65,0.21-0.99c0.02-0.18,0.22-0.4-0.08-0.55
		c-0.31-0.16-0.41,0.08-0.55,0.25c-0.87,1.09-1.47,2.32-1.92,3.63c-0.59,1.73-0.91,3.52-1.34,5.36c-0.42-0.75-0.63-1.5-0.77-2.27
		c-0.54-2.92-0.04-5.72,0.95-8.46c0.92-2.55,2.27-4.87,3.9-7.03c0.2-0.26,0.32-0.21,0.54-0.06c2.94,1.98,4.62,4.77,5.09,8.24
		c0.68,5.01-1.11,9.02-5.16,12.02C140.73,104.82,140.35,105.05,139.96,105.18z"/>
	<path class="st3" d="M48.73,26.73c-1.16,0.85-1.94,1.86-2.56,3c-0.83,1.55-1.3,3.23-1.81,4.9c-0.07,0.23-0.14,0.46-0.24,0.76
		c-0.2-0.41-0.15-0.8-0.18-1.16c-0.32-4.33,0.44-8.41,2.81-12.12c0.68-1.06,1.44-2.06,2.33-2.95c0.66-0.66,1.06-0.66,1.71,0.01
		c2.07,2.15,3.22,4.69,3.32,7.69c0.12,3.33-0.92,6.23-3.21,8.66c-0.96,1.01-2.1,1.77-3.38,2.33c-0.31,0.14-0.37,0.05-0.42-0.26
		c-0.43-2.66-0.02-5.25,0.69-7.8C48.08,28.82,48.39,27.84,48.73,26.73z"/>
	<path class="st0" d="M89.29,54.8c-0.2-0.16-0.34,0.04-0.48,0.11c-2.03,1.13-3.55,2.78-4.84,4.67c-0.38,0.55-0.74,1.12-1.14,1.73
		c-0.12-0.5-0.02-0.96,0.08-1.4c1.16-5.29,4.06-9.29,8.85-11.87c0.36-0.19,0.77-0.29,1.14-0.47c0.32-0.15,0.49-0.03,0.67,0.23
		c1.13,1.6,1.6,3.4,1.55,5.32c-0.11,4.43-2.11,7.77-5.99,9.93c-1.24,0.69-2.58,1.02-4.01,0.97c-0.35-0.01-0.52-0.04-0.43-0.52
		c0.51-2.51,1.68-4.71,3.12-6.78C88.28,56.06,88.72,55.38,89.29,54.8c-0.02-0.03-0.03-0.05-0.04-0.08
		c-0.01,0.01-0.02,0.03-0.03,0.04C89.24,54.77,89.27,54.79,89.29,54.8z"/>
	<path class="st0" d="M74.09,19.45c2.45-2.46,5.31-4.12,8.7-4.85c2.1-0.45,4.21-0.52,6.34-0.28c1.07,0.12,1.51,0.67,1.33,1.71
		c-0.73,4.33-3.36,7.05-7.38,8.46c-3.13,1.1-6.2,0.82-9.1-0.9c-0.32-0.19-0.35-0.31-0.07-0.58c1.73-1.68,3.8-2.75,6.05-3.54
		c0.92-0.32,1.86-0.61,2.78-0.92c0.17-0.06,0.52,0.02,0.38-0.39c-0.1-0.3-0.14-0.49-0.57-0.39c-2.75,0.59-5.51,1.13-8.27,1.69
		C74.22,19.46,74.16,19.45,74.09,19.45z"/>
	<path class="st4" d="M74.56,154.75c1.82-0.03,3.35-0.07,4.87,0.21c2.7,0.5,4.4,2.13,5.19,4.68c1,3.21,0.48,6.17-1.82,8.71
		c-1.3,1.43-2.99,1.96-4.88,1.88c-1.84-0.09-3.67-0.06-5.5,0.03c-0.86,0.04-0.86,0.02-0.85-0.86c0.02-2.56,0.19-5.11,0.11-7.67
		c-0.06-2.17-0.16-4.34-0.24-6.51c-0.01-0.33,0.11-0.47,0.45-0.47C72.87,154.76,73.86,154.75,74.56,154.75z M74.34,161.62
		c-0.04,1.8,0.01,3.61,0.08,5.41c0.03,0.8,0.11,0.91,0.92,0.94c0.92,0.03,1.84,0.03,2.75-0.02c1.36-0.07,2.4-0.71,3.16-1.84
		c0.79-1.17,1.11-2.47,1.08-3.86c-0.06-3.07-1.97-5.14-4.85-5.25c-0.9-0.03-1.8-0.11-2.7,0.09c-0.31,0.07-0.45,0.22-0.45,0.57
		C74.35,158.98,74.34,160.3,74.34,161.62z"/>
	<path class="st4" d="M62.57,159.78c-0.1,2.22-1.13,4.66-3.5,6.42c-1.65,1.23-3.49,1.56-5.47,0.98c-1.97-0.59-3.94-1.18-5.96-1.6
		c-0.39-0.08-0.49-0.24-0.37-0.64c0.71-2.35,1.44-4.69,2.09-7.06c0.62-2.3,1.15-4.62,1.71-6.93c0.06-0.25,0.09-0.5,0.46-0.39
		c2.09,0.63,4.24,1.02,6.29,1.79c1.51,0.57,2.87,1.38,3.74,2.82C62.29,156.38,62.58,157.71,62.57,159.78z M54.7,165.03
		c1.1,0,1.74-0.19,2.43-0.68c1.66-1.17,2.46-2.83,2.69-4.8c0.2-1.76-0.3-3.28-1.68-4.42c-1.25-1.02-2.8-1.29-4.34-1.54
		c-0.34-0.06-0.51,0.12-0.61,0.46c-0.89,3.04-1.71,6.11-2.49,9.18c-0.12,0.49,0.03,0.73,0.44,0.88
		C52.38,164.57,53.66,164.91,54.7,165.03z"/>
	<path class="st4" d="M94.11,152.96c2.88,0.01,4.66,1.7,4.97,4.58c0.17,1.58-0.22,2.9-1.33,4.02c-0.24,0.24-0.24,0.43-0.04,0.7
		c1.08,1.48,2.15,2.98,3.22,4.47c0.07,0.1,0.13,0.21,0.2,0.3c0.15,0.2,0.08,0.32-0.14,0.34c-0.86,0.08-1.69,0.28-2.52,0.49
		c-0.29,0.08-0.44-0.14-0.59-0.34c-0.88-1.27-1.77-2.54-2.62-3.82c-0.3-0.45-0.68-0.59-1.18-0.49c-0.69,0.13-1.38,0.28-2.06,0.43
		c-0.66,0.14-0.71,0.21-0.56,0.86c0.27,1.19,0.55,2.38,0.83,3.57c0.23,1,0.23,1-0.79,1.13c-0.5,0.06-0.99,0.17-1.47,0.32
		c-0.36,0.11-0.54,0.02-0.62-0.41c-0.56-3.31-0.94-6.66-1.73-9.93c-0.35-1.44-0.68-2.88-1.05-4.31c-0.09-0.36,0.03-0.48,0.34-0.54
		c2.1-0.41,4.17-0.96,6.28-1.3C93.52,152.97,93.82,152.98,94.11,152.96z M93.96,155.42c-1.52,0.06-2.6,0.25-3.65,0.58
		c-0.3,0.09-0.43,0.23-0.38,0.59c0.24,1.55,0.58,3.09,0.85,4.64c0.05,0.29,0.2,0.3,0.42,0.26c0.9-0.15,1.81-0.26,2.71-0.44
		c1.93-0.38,2.72-1.39,2.39-3.1C96.02,156.45,95.32,155.33,93.96,155.42z"/>
	<path class="st3" d="M80.1,46.51c-0.64-1.94-0.87-3.81-0.76-5.72c0.17-2.93,0.97-5.66,2.62-8.1c0.42-0.62,0.92-1.18,1.45-1.72
		c0.23-0.23,0.4-0.23,0.66-0.04c2.73,1.94,4.25,4.59,4.43,7.93c0.23,4.24-1.48,7.57-4.96,10c-0.34,0.24-0.44,0.2-0.54-0.2
		c-0.59-2.56-0.49-5.11,0.03-7.66c0.18-0.89,0.39-1.78,0.61-2.74c-0.58,0.29-0.96,0.71-1.29,1.17c-0.98,1.35-1.48,2.91-1.85,4.51
		C80.31,44.73,80.21,45.55,80.1,46.51z"/>
	<path class="st4" d="M119.46,156.74c0.04,0.81,0.29,1.49,0.41,2.2c0.01,0.08,0.04,0.15,0.05,0.22c0.12,0.74,0.11,0.75-0.53,1.13
		c-0.47,0.28-0.95,0.56-1.42,0.84c-0.46,0.27-0.52,0.25-0.62-0.27c-0.28-1.53-0.53-3.07-0.82-4.6c-0.54-2.9-0.94-5.82-1.35-8.74
		c-0.12-0.82-0.24-1.63-0.37-2.45c-0.04-0.26,0-0.44,0.27-0.55c0.63-0.25,1.22-0.57,1.72-1.02c0.28-0.25,0.48-0.05,0.68,0.11
		c1.02,0.8,2.04,1.61,3.05,2.43c3.11,2.51,6.22,5.01,9.33,7.52c0.43,0.34,0.43,0.37-0.07,0.63c-0.58,0.3-1.16,0.61-1.69,1
		c-0.27,0.19-0.5,0.17-0.75,0c-0.44-0.31-0.82-0.69-1.22-1.05c-0.1-0.09-0.2-0.18-0.31-0.27c-0.81-0.69-0.93-0.7-1.84-0.17
		c-1.37,0.8-2.74,1.62-4.11,2.41C119.59,156.26,119.4,156.46,119.46,156.74z M117.61,147.04c0.35,2.03,0.7,3.96,1.01,5.88
		c0.09,0.57,0.22,0.84,0.97,0.46c0.9-0.45,1.76-0.97,2.6-1.54c0.14-0.09,0.26-0.22,0.37-0.34c0.16-0.17,0.17-0.32-0.04-0.49
		C120.91,149.72,119.31,148.42,117.61,147.04z"/>
	<path class="st4" d="M14.83,145.83c0.04-0.32,0.17-0.56,0.28-0.81c0.31-0.68,0.76-1.29,0.96-2.02c0.08-0.31,0.02-0.52-0.19-0.74
		c-1.24-1.25-2.48-2.5-3.71-3.77c-0.29-0.31-0.59-0.35-0.95-0.19c-0.57,0.26-1.13,0.54-1.69,0.81c-0.23,0.11-0.47,0.21-0.71,0.31
		c-0.25,0.11-0.45,0.06-0.65-0.15c-0.44-0.47-0.91-0.91-1.36-1.37c-0.4-0.4-0.39-0.47,0.11-0.7c2-0.91,4.01-1.79,6.01-2.71
		c2.84-1.31,5.79-2.36,8.65-3.64c0.29-0.13,0.49-0.09,0.66,0.17c0.36,0.52,0.79,0.98,1.32,1.32c0.34,0.22,0.22,0.49,0.1,0.76
		c-0.6,1.34-1.2,2.67-1.81,4.01c-1.58,3.47-3.17,6.94-4.76,10.41c-0.24,0.53-0.25,0.53-0.65,0.09c-0.43-0.48-0.86-0.95-1.36-1.37
		C14.95,146.13,14.79,146.02,14.83,145.83z M20.3,134.19c-0.03-0.03-0.05-0.05-0.08-0.08c-1.8,0.8-3.6,1.6-5.39,2.41
		c-0.54,0.24-0.59,0.43-0.21,0.9c0.33,0.4,0.71,0.76,1.07,1.14c0.44,0.47,0.88,0.94,1.41,1.31c0.32,0.22,0.53,0.2,0.69-0.2
		c0.34-0.8,0.72-1.58,1.09-2.37C19.35,136.26,19.82,135.22,20.3,134.19z"/>
	<path class="st3" d="M146.45,70.14c0.28,0.02,0.8,0.05,1.32,0.1c0.64,0.05,1.1,0.42,1.48,0.91c0.14,0.18,0.16,0.38,0.13,0.61
		c-0.37,3.21-1.98,5.61-4.78,7.19c-3.06,1.73-6.17,1.89-9.33,0.27c-0.15-0.08-0.31-0.13-0.4-0.29c-0.28-0.48-0.25-0.59,0.25-0.87
		c2.25-1.27,4.5-2.54,6.75-3.81c0.09-0.05,0.18-0.11,0.28-0.16c0.16-0.08,0.32-0.17,0.22-0.38c-0.09-0.18-0.24-0.06-0.36-0.02
		c-1.34,0.36-2.68,0.73-4.03,1.09c-0.88,0.24-1.77,0.48-2.65,0.72c-0.12,0.03-0.24,0.09-0.36,0.04c-0.13-0.05-0.27-0.12-0.07-0.28
		c2.85-2.29,5.73-4.53,9.54-4.99C145.02,70.2,145.61,70.14,146.45,70.14z"/>
	<path class="st4" d="M104.75,156.49c0.02,0,0.14-0.03,0.25-0.07c1.85-0.7,3.72-1.38,5.51-2.24c0.32-0.16,0.47-0.08,0.56,0.25
		c0.16,0.6,0.33,1.21,0.5,1.81c0.1,0.36-0.18,0.41-0.41,0.47c-1.52,0.4-2.99,0.97-4.45,1.53c-0.36,0.13-0.7,0.29-1.06,0.44
		c-0.31,0.13-0.41,0.36-0.29,0.67c0.33,0.89,0.65,1.78,1.01,2.65c0.35,0.85,0.67,0.98,1.54,0.7c1.74-0.57,3.4-1.36,5.06-2.12
		c0.96-0.44,0.95-0.44,1.12,0.59c0.07,0.45,0.17,0.9,0.28,1.35c0.07,0.28-0.05,0.42-0.29,0.47c-3.01,0.68-5.8,1.97-8.66,3.07
		c-0.4,0.16-0.61,0.09-0.75-0.34c-0.7-2.18-1.38-4.36-2.15-6.52c-0.85-2.37-1.85-4.68-2.87-6.98c-0.18-0.41-0.11-0.59,0.31-0.73
		c2.72-0.9,5.41-1.91,8.06-2.99c0.67-0.27,0.72-0.24,1.07,0.39c0.2,0.36,0.38,0.73,0.58,1.09c0.19,0.33,0.08,0.5-0.26,0.61
		c-1.47,0.47-2.94,0.94-4.4,1.41c-0.49,0.16-0.99,0.32-1.45,0.57c-0.32,0.17-0.47,0.43-0.38,0.79c0.25,1.01,0.67,1.96,1.04,2.93
		C104.31,156.43,104.46,156.51,104.75,156.49z"/>
	<path class="st4" d="M49.16,149.8c-0.16,0.57-0.32,1.19-0.58,1.78c-0.12,0.27-0.33,0.15-0.5,0.06c-1.27-0.66-2.55-1.32-3.82-1.98
		c-0.53-0.27-1.05-0.56-1.61-0.76c-0.55-0.19-0.77-0.12-1.07,0.38c-0.48,0.82-0.84,1.7-1.23,2.56c-0.16,0.36,0.03,0.57,0.35,0.72
		c1.79,0.82,3.56,1.67,5.41,2.35c0.53,0.2,0.54,0.21,0.27,0.69c-0.25,0.45-0.56,0.88-0.78,1.35c-0.2,0.45-0.44,0.42-0.78,0.21
		c-1.08-0.67-2.23-1.2-3.38-1.73c-0.61-0.28-1.23-0.54-1.84-0.82c-0.31-0.14-0.54-0.06-0.68,0.24c-0.4,0.86-0.82,1.71-1.18,2.58
		c-0.37,0.89-0.25,1.17,0.61,1.61c1.75,0.9,3.61,1.56,5.44,2.29c0.5,0.2,0.54,0.3,0.21,0.71c-0.36,0.46-0.69,0.94-0.99,1.43
		c-0.17,0.27-0.35,0.31-0.61,0.14c-2.55-1.65-5.39-2.72-8.13-3.99c-0.6-0.28-0.63-0.32-0.31-0.92c0.98-1.9,2.01-3.77,2.95-5.69
		c1.16-2.35,2.14-4.79,3.14-7.21c0.2-0.49,0.25-0.52,0.74-0.27c2.59,1.31,5.21,2.56,7.87,3.7C48.89,149.32,49.16,149.41,49.16,149.8
		z"/>
	<path class="st3" d="M19.65,74.65c-1.29,1.08-2.74,1.65-4.34,1.81c-4.47,0.43-8.54-2.11-10.05-6.25c-0.35-0.96-0.5-1.95-0.48-2.97
		c0.01-0.21,0.01-0.38,0.29-0.42c4.78-0.74,9.09,0.22,12.73,3.55c0.3,0.28,0.54,0.63,0.8,0.95c0.07,0.09,0.12,0.2,0.22,0.37
		c-1.68-0.42-3.29-0.82-4.91-1.22c-0.59-0.15-1.19-0.29-1.78-0.43c-0.14-0.03-0.31-0.18-0.41,0c-0.12,0.23,0.13,0.27,0.26,0.34
		c1.61,0.91,3.23,1.81,4.84,2.71C17.76,73.59,18.69,74.11,19.65,74.65z"/>
	<path class="st4" d="M26.6,151.15c2.19-1.07,4.31-2.08,6.31-3.32c0.26-0.16,0.47-0.38,0.65-0.64c0.83-1.28,1.69-2.55,2.51-3.84
		c0.21-0.33,0.4-0.37,0.69-0.12c0.51,0.44,1.06,0.82,1.66,1.15c0.3,0.16,0.38,0.34,0.16,0.65c-0.88,1.27-1.76,2.54-2.6,3.83
		c-0.3,0.46-0.72,0.74-1.17,1c-2.43,1.41-4.96,2.63-7.45,3.93c-0.35,0.18-0.71,0.35-1.06,0.55c-0.3,0.17-0.56,0.17-0.84-0.05
		c-0.4-0.31-0.81-0.6-1.25-0.85c-0.38-0.22-0.46-0.5-0.41-0.91c0.14-1.05,0.25-2.1,0.38-3.14c0.26-2.09,0.47-4.19,0.8-6.28
		c0.09-0.55,0.26-1.05,0.61-1.5c0.9-1.2,1.77-2.42,2.64-3.64c0.22-0.31,0.42-0.4,0.74-0.12c0.5,0.45,1.06,0.82,1.66,1.14
		c0.33,0.18,0.33,0.37,0.11,0.65c-0.76,0.98-1.48,1.99-2.27,2.94c-0.69,0.84-1.12,1.75-1.25,2.84
		C26.97,147.29,26.78,149.18,26.6,151.15z"/>
	<path class="st0" d="M117.78,29.24c-1.3,0.87-2.09,2.12-2.71,3.51c-0.46,1.05-0.88,2.11-1.37,3.17c0-0.66-0.03-1.31,0-1.97
		c0.2-3.92,1.48-7.41,4.19-10.31c0.05-0.06,0.1-0.12,0.15-0.17c1-0.99,1.83-0.93,2.66,0.21c2.91,3.95,2.31,9.78-1.32,12.92
		c-0.84,0.73-1.81,1.24-2.86,1.62c-0.33,0.12-0.44,0.09-0.47-0.3c-0.14-1.68,0.22-3.28,0.71-4.87c0.34-1.11,0.73-2.2,1-3.33
		c0.03-0.13,0.04-0.27,0.06-0.4c0.02-0.02,0.05-0.05,0.05-0.07C117.86,29.18,117.81,29.22,117.78,29.24z"/>
	<path class="st4" d="M141.93,131c-2.98,0-5.05-3.2-3.92-5.95c0.71-1.72,2.03-2.88,3.62-3.75c0.34-0.19,0.58-0.18,0.72,0.26
		c0.16,0.49,0.44,0.94,0.71,1.38c0.2,0.32,0.17,0.53-0.18,0.74c-0.61,0.37-1.22,0.76-1.73,1.28c-0.26,0.27-0.47,0.56-0.63,0.89
		c-0.26,0.55-0.29,1.09,0.1,1.6c0.42,0.54,0.93,0.86,1.66,0.73c0.86-0.15,1.58-0.64,2.36-0.97c0.67-0.28,1.29-0.68,2.05-0.74
		c0.59-0.05,1.16,0.03,1.7,0.25c2.17,0.87,3.34,3.17,2.85,5.55c-0.28,1.38-0.94,2.57-1.84,3.64c-0.3,0.35-0.58,0.53-1.04,0.2
		c-0.39-0.28-0.86-0.45-1.32-0.61c-0.69-0.25-0.71-0.34-0.2-0.89c0.53-0.56,1.01-1.15,1.37-1.83c0.23-0.42,0.41-0.86,0.43-1.34
		c0.07-1.34-1.03-2.28-2.33-1.95c-1.06,0.26-2,0.81-3,1.22C142.84,130.89,142.37,131.04,141.93,131z"/>
	<path class="st4" d="M5.22,132.68c-1.55-0.07-3.02-1.03-4.24-2.46c-0.34-0.4-0.64-0.82-0.88-1.28c-0.14-0.27-0.16-0.49,0.12-0.72
		c0.48-0.4,0.89-0.89,1.27-1.39c0.23-0.31,0.41-0.26,0.59,0.04c0.39,0.66,0.75,1.34,1.28,1.9c0.19,0.2,0.38,0.4,0.59,0.58
		c0.78,0.66,1.55,0.78,2.32,0.38c0.88-0.45,1.08-1.24,1.03-2.13c-0.06-0.98-0.17-1.95-0.25-2.93c-0.07-0.8,0.16-1.52,0.63-2.15
		c1.59-2.11,4.8-2.88,7.1-0.17c0.92,1.08,1.44,2.37,1.71,3.75c0.13,0.66,0.07,0.69-0.58,0.76c-0.45,0.05-0.91,0.13-1.35,0.23
		c-0.4,0.1-0.62,0.03-0.72-0.42c-0.12-0.58-0.28-1.16-0.52-1.71c-0.16-0.37-0.36-0.71-0.63-1.01c-0.48-0.53-1.04-0.86-1.79-0.59
		c-0.76,0.27-1.17,0.83-1.18,1.68c-0.01,0.89,0.18,1.76,0.29,2.64C10.36,130.56,8.5,132.69,5.22,132.68z"/>
	<path class="st0" d="M61.71,45.06c-0.8-0.75-1.54-1.43-2.27-2.12c-0.64-0.6-1.27-1.2-1.91-1.79c-0.09-0.09-0.18-0.29-0.37-0.14
		c-0.21,0.16-0.04,0.3,0.04,0.43c1.14,1.9,2.28,3.8,3.41,5.71c0.3,0.51,0.02,1.01-0.6,1c-2.02-0.03-3.73-0.8-5.1-2.26
		c-1.6-1.71-2.59-3.7-2.59-6.09c0-1.31,0.37-2.53,0.95-3.7c0.12-0.23,0.23-0.25,0.47-0.21c1.28,0.25,2.37,0.9,3.36,1.71
		c1.95,1.6,3.48,3.52,4.33,5.93c0.1,0.27,0.16,0.56,0.22,0.84C61.67,44.57,61.68,44.76,61.71,45.06z"/>
	<path class="st3" d="M51.79,70.24c-1.27-0.44-2.53-0.88-3.8-1.32c-0.22-0.08-0.43-0.16-0.65-0.23c-0.1-0.03-0.24-0.13-0.31,0.05
		c-0.06,0.15,0.07,0.22,0.17,0.29c0.83,0.58,1.66,1.15,2.49,1.73c0.89,0.62,1.78,1.24,2.73,1.9c-0.87,0.41-1.72,0.64-2.6,0.8
		c-3.24,0.59-7.68-1.79-8.04-6.47c-0.07-0.87-0.09-0.89,0.76-1.02c2.71-0.41,5.07,0.41,7.2,2.05
		C50.53,68.62,51.24,69.34,51.79,70.24z"/>
	<path class="st2" d="M51.47,118.17c-0.64,1.86-1.81,3.15-3.65,3.8c-2.75,0.99-5.06,0.23-7.07-1.77c-0.19-0.19-0.14-0.28,0.01-0.44
		c1.56-1.69,3.47-2.72,5.76-3.02c1.13-0.15,2.26-0.14,3.52,0.01c-0.8,0.33-1.48,0.62-2.16,0.9c-0.51,0.21-1.01,0.42-1.52,0.63
		c-0.15,0.06-0.3,0.1-0.23,0.31c0.06,0.2,0.22,0.12,0.34,0.1c1.58-0.18,3.16-0.36,4.74-0.54C51.28,118.16,51.35,118.17,51.47,118.17
		z"/>
	<path class="st0" d="M101.42,72.11c1.66-1.17,3.26-2.3,4.86-3.43c0.06-0.04,0.12-0.09,0.19-0.13c0.19-0.1,0.19-0.27,0.12-0.43
		c-0.08-0.19-0.23-0.1-0.36-0.07c-1.17,0.25-2.33,0.5-3.5,0.76c-0.07,0.02-0.14,0.02-0.29,0.03c1.41-1.45,2.99-2.47,4.9-2.94
		c0.67-0.16,1.35-0.26,2.04-0.28c0.69-0.02,1.16,0.35,1.54,0.85c0.25,0.34,0.11,0.75,0.05,1.11c-0.37,2.15-1.76,3.5-3.6,4.47
		c-1.74,0.91-3.55,0.76-5.36,0.25C101.83,72.26,101.66,72.19,101.42,72.11z"/>
	<path class="st3" d="M90.27,127.24c1.75,0.19,3.44,0.38,5.12,0.56c0.03,0,0.06,0.01,0.09,0.01c0.13,0.01,0.31,0.09,0.35-0.1
		c0.04-0.16-0.15-0.16-0.25-0.21c-1.07-0.52-2.14-1.04-3.22-1.56c-0.05-0.03-0.11-0.06-0.26-0.14c0.79-0.09,1.48-0.13,2.17-0.09
		c2.61,0.13,4.82,1.15,6.64,3.02c0.18,0.19,0.22,0.3,0.04,0.53c-2.66,3.19-7.52,2.39-9.27,0.35
		C91.1,128.9,90.63,128.15,90.27,127.24z"/>
	<path class="st2" d="M20.28,58.67c-1.26,0.4-2.39,0.76-3.52,1.12c-0.15,0.05-0.4,0.02-0.34,0.32c0.06,0.26,0.26,0.17,0.41,0.17
		c1.61,0.01,3.21,0,4.9,0c-0.38,0.84-0.89,1.5-1.55,2.05c-1.92,1.6-6.35,2.09-8.65-1.1c-0.17-0.24-0.11-0.37,0.04-0.54
		c1.11-1.3,2.56-2.01,4.21-2.32C17.25,58.09,18.72,58.17,20.28,58.67z"/>
	<path class="st3" d="M95.58,79.6c-0.01-0.04-0.04-0.09-0.03-0.12c0.95-2.85,2.51-5.2,5.35-6.49c0.18-0.08,0.3-0.14,0.44,0.09
		c1.65,2.6,0.57,6.72-2.17,8.16c-0.89,0.47-1.84,0.69-2.91,0.76c0.37-0.75,0.7-1.43,1.04-2.11c0.4-0.81,0.81-1.61,1.21-2.42
		c0.07-0.14,0.17-0.29,0-0.41c-0.16-0.11-0.23,0.09-0.32,0.17C97.31,78.01,96.44,78.81,95.58,79.6C95.57,79.6,95.58,79.6,95.58,79.6
		z"/>
	<path class="st2" d="M43.55,78.46c0.06,2.23-1.45,4.96-4.41,5.46c-1.25,0.21-2.43,0-3.57-0.54c-0.27-0.13-0.35-0.24-0.26-0.55
		c0.66-2.15,2.13-3.48,4.18-4.24c0.65-0.24,1.33-0.43,2.17-0.49c-0.81,0.65-1.53,1.21-2.24,1.78c-0.11,0.09-0.37,0.13-0.25,0.35
		c0.13,0.26,0.33,0.1,0.51,0.02c1.15-0.54,2.3-1.08,3.45-1.62C43.26,78.58,43.4,78.52,43.55,78.46z"/>
	<path class="st0" d="M39.89,32.54c-1.07,0.07-2.13,0.14-3.2,0.22c-0.13,0.01-0.35-0.07-0.38,0.14c-0.03,0.22,0.17,0.24,0.34,0.29
		c1.48,0.43,2.95,0.87,4.5,1.33c-0.72,0.79-1.53,1.34-2.52,1.62c-2.74,0.76-5.89-0.99-6.65-3.69c-0.1-0.35-0.07-0.51,0.35-0.63
		c2.49-0.66,4.92-0.64,7.29,0.48c0.09,0.04,0.19,0.09,0.28,0.14C39.9,32.48,39.9,32.51,39.89,32.54z"/>
	<path class="st3" d="M127.55,103.73c-0.91,0.11-1.69,0.22-2.48,0.3c-0.16,0.02-0.36,0.13-0.48-0.12c-0.11-0.24-0.18-0.4,0.17-0.54
		c1.62-0.64,3.22-1.32,4.86-1.9c0.34-0.12,0.54-0.04,0.76,0.2c0.54,0.58,0.73,1.22,0.54,2.01c-0.6,2.46-3,4.25-5.59,4.12
		c-0.44-0.02-0.89-0.01-1.33,0c-0.2,0-0.34-0.04-0.47-0.21c-0.18-0.24-0.17-0.38,0.08-0.58c0.84-0.67,1.66-1.35,2.55-1.95
		C126.67,104.74,127.14,104.36,127.55,103.73z"/>
	<path class="st2" d="M90.2,89.27c0.32-1.11,0.61-2.13,0.9-3.16c0.02-0.06,0.04-0.12,0.05-0.17c0.02-0.11,0.1-0.25-0.04-0.33
		c-0.16-0.09-0.21,0.07-0.28,0.16c-0.37,0.47-0.74,0.94-1.1,1.41c-0.09,0.12-0.19,0.23-0.37,0.45c0.16-1.9,0.67-3.52,1.9-4.85
		c0.52-0.57,1.16-0.99,1.82-1.38c0.33-0.19,0.49-0.11,0.7,0.18c1.73,2.45,0.93,5.6-1.82,7.05C91.43,88.89,90.88,89.13,90.2,89.27z"
		/>
	<path class="st2" d="M130.56,64.91c1.67,0.08,3.34,0.16,5.01,0.24c0.18,0.01,0.37,0,0.55,0.02c0.2,0.03,0.26-0.07,0.32-0.23
		c0.07-0.2-0.05-0.24-0.18-0.3c-0.67-0.34-1.34-0.67-2-1.02c-0.13-0.07-0.29-0.1-0.4-0.26c1-0.34,1.99-0.27,2.96,0.01
		c1.15,0.32,2.16,0.9,3.12,1.61c0.25,0.18,0.24,0.32,0.09,0.55c-1.36,2.23-3.67,2.96-6.12,1.92c-1.26-0.54-2.31-1.37-3.27-2.32
		c-0.04-0.04-0.07-0.1-0.11-0.15C130.53,64.97,130.55,64.95,130.56,64.91z"/>
	<path class="st3" d="M64.51,84.45c-0.34-0.52-0.67-1.05-1.02-1.56c-0.08-0.11-0.1-0.37-0.35-0.22c-0.19,0.12-0.25,0.27-0.17,0.5
		c0.36,1.01,0.7,2.02,1.03,3.04c0.06,0.17,0.16,0.33,0.12,0.56c-0.97-0.07-1.85-0.39-2.6-1.01c-2.02-1.68-2.46-4.65-1.03-6.85
		c0.2-0.3,0.34-0.37,0.67-0.15c1.81,1.16,3.06,2.71,3.37,4.9c0.04,0.25,0.05,0.51,0.07,0.77C64.58,84.43,64.54,84.44,64.51,84.45z"
		/>
	<path class="st2" d="M93.36,71.87c-0.66,0.43-1.32,0.85-1.99,1.27c-0.12,0.08-0.22,0.21-0.39,0.2l0.01,0.01
		c-0.05-0.24,0.13-0.4,0.22-0.58c0.95-1.77,2.2-3.23,4.14-3.97c0.06-0.02,0.11-0.05,0.17-0.06c1.22-0.35,1.06-0.6,1.41,0.8
		c0.71,2.85-1.34,5.51-4.34,5.73c-0.36,0.03-0.73,0.12-1.13-0.02c0.39-0.73,0.77-1.45,1.26-2.11c0.28-0.38,0.57-0.76,0.72-1.22
		c0-0.04,0-0.07,0-0.11C93.41,71.83,93.38,71.85,93.36,71.87z"/>
	<path class="st2" d="M105.22,119.13c1.04-2.3,2.6-4.04,5.13-4.75c0.35-0.1,0.5-0.02,0.63,0.33c1.11,2.93-0.7,5.94-3.83,6.37
		c-0.47,0.06-0.94,0.11-1.43,0.06c0.47-1.27,1.43-2.23,1.93-3.49c-0.79,0.52-1.59,1.03-2.38,1.55
		C105.26,119.17,105.24,119.15,105.22,119.13z"/>
	<path class="st2" d="M52.18,79.6c1.15-0.25,2.23-0.72,3.36-1.04c0.16-0.05,0.31-0.1,0.53-0.17c-0.29,1.71-1,3.07-2.54,3.86
		c-1.38,0.71-2.82,1.03-4.31,0.32c-1.06-0.5-1.06-0.57-0.45-1.53c1.02-1.61,2.37-2.75,4.31-3.06c0.09-0.01,0.18-0.02,0.39-0.05
		c-0.39,0.48-0.73,0.87-1.05,1.28C52.33,79.32,52.13,79.39,52.18,79.6c-0.03-0.03-0.05-0.03-0.07,0.01c0,0.01,0.01,0.03,0.01,0.04
		C52.14,79.63,52.16,79.62,52.18,79.6z"/>
	<path class="st0" d="M60.64,72.42c-0.5-0.03-1.01-0.07-1.51-0.09c-0.16-0.01-0.38-0.16-0.45,0.14c-0.06,0.27,0.2,0.27,0.34,0.35
		c0.79,0.4,1.59,0.78,2.38,1.18c0.1,0.05,0.2,0.08,0.28,0.15c0.44,0.31,0.43,0.58-0.02,0.87c-1.01,0.65-2.1,0.81-3.25,0.45
		c-2.19-0.68-3.61-2-3.8-4.49c-0.03-0.41,0.1-0.42,0.41-0.36c1.54,0.29,3.09,0.58,4.64,0.87c0.44,0.08,0.87,0.16,1.31,0.24
		c0.24,0.04,0.43,0.07,0.38,0.41c-0.05,0.31-0.18,0.38-0.45,0.33C60.82,72.42,60.73,72.43,60.64,72.42
		C60.64,72.42,60.64,72.42,60.64,72.42z"/>
	<path class="st3" d="M81.76,81.83c1.22-0.56,2.42-1.12,3.63-1.67c0.07-0.03,0.14-0.06,0.21-0.1c0.13-0.07,0.31-0.09,0.26-0.31
		c-0.06-0.24-0.24-0.14-0.37-0.12c-0.78,0.08-1.55,0.17-2.33,0.25c-0.07,0.01-0.14,0-0.31,0c1.04-0.91,2.14-1.44,3.4-1.65
		c0.82-0.14,1.65-0.1,2.47,0c0.18,0.02,0.33,0.08,0.41,0.25c0.25,0.56,0.39,1.1,0.09,1.71c-1.03,2.09-3.23,3.03-5.67,2.4
		c-0.46-0.12-0.91-0.28-1.33-0.48C82.07,82.04,81.9,81.99,81.76,81.83z"/>
	<path class="st2" d="M42.94,47.63c0.79,2.18-0.14,4.95-2.99,5.67c-0.69,0.17-1.39,0.19-2.09,0.11c-0.27-0.03-0.31-0.15-0.32-0.38
		c-0.02-0.91,0.2-1.76,0.64-2.55c0.74-1.32,1.86-2.24,3.15-3.01c-0.36,0.68-0.73,1.35-1.09,2.04c-0.06,0.11-0.22,0.24-0.08,0.36
		c0.15,0.13,0.24-0.07,0.33-0.14C41.31,49.03,42.12,48.33,42.94,47.63z"/>
	<path class="st2" d="M51.05,48.82c0.67,1.13,1.32,2.27,2.01,3.39c0.17,0.28,0.22,0.5,0.04,0.79c-0.19,0.3-0.4,0.06-0.61,0.05
		c-1.04-0.06-1.74-0.63-2.32-1.44c-0.67-0.92-1.31-1.84-1.42-3.02c-0.1-1.09,0.31-2,0.9-2.87c0.12-0.18,0.2-0.12,0.32-0.01
		c1.14,1.02,2.27,2.05,3.41,3.07c0.11,0.1,0.22,0.19,0.07,0.33c-0.14,0.13-0.15,0.42-0.48,0.29c-0.61-0.24-1.23-0.44-1.85-0.66
		c-0.04,0-0.07,0-0.11-0.01C51.02,48.76,51.04,48.79,51.05,48.82z"/>
	<path class="st3" d="M65.99,17.56c-0.39,0.21-0.74,0.37-1.06,0.58c-0.79,0.5-0.86,1.01-0.13,1.59c0.92,0.74,1.47,1.75,2.17,2.72
		c-1.19,0.16-2.25-0.06-3.21-0.69c-1.94-1.27-2.67-3.72-1.91-5.96c0.06-0.18,0.12-0.29,0.35-0.17
		C63.44,16.28,64.7,16.91,65.99,17.56z"/>
	<path class="st2" d="M111.13,81.01c0.97,0.51,1.9,0.99,2.83,1.48c0.27,0.14,0.56,0.25,0.8,0.43c0.42,0.32,0.77,0.24,1.1-0.12
		c0.07-0.08,0.17-0.13,0.25-0.2c0.69-0.52,0.71-0.54,1.15,0.2c0.41,0.68,0.76,1.39,1.13,2.09c0.05,0.09,0.13,0.2-0.04,0.25
		c-1.33,0.46-2.65,0.97-4.09,0.38c-1.92-0.78-2.91-2.24-3.16-4.25C111.11,81.22,111.12,81.14,111.13,81.01z"/>
	<path class="st2" d="M24.37,33.51c1.72,0.24,3.33,0.47,4.95,0.7c0.01,0.21-0.17,0.26-0.27,0.35c-1.74,1.47-4.08,1.78-5.9,0.8
		c-0.56-0.3-1.05-0.69-1.41-1.22c-0.48-0.71-0.3-1.26,0.51-1.53c0.97-0.33,1.99-0.47,3-0.64c0.33-0.06,0.66-0.12,0.99-0.17
		c0.17-0.02,0.35-0.11,0.43,0.17c0.08,0.27-0.05,0.35-0.24,0.45C25.78,32.76,25.14,33.11,24.37,33.51z"/>
	<path class="st2" d="M122.8,38.64c1.29-0.14,2.51-0.29,3.74-0.41c0.26-0.03,0.44-0.08,0.47-0.37c0.03-0.3-0.22-0.25-0.37-0.3
		c-0.64-0.22-1.28-0.42-1.92-0.62c-0.13-0.04-0.3-0.06-0.27-0.25c0.03-0.23,0.22-0.1,0.33-0.1c1.46,0.13,2.93,0.12,4.37,0.43
		c1.16,0.25,1.44,1.05,0.72,1.98c-1.13,1.46-3.33,1.92-5.21,1.09C123.88,39.75,123.22,39.24,122.8,38.64z"/>
	<path class="st3" d="M111.47,77.6c0.85-0.64,1.68-1.26,2.51-1.88c0.13-0.1,0.27-0.2,0.4-0.3c0.1-0.07,0.15-0.15,0.1-0.27
		c-0.06-0.13-0.17-0.1-0.27-0.07c-0.58,0.15-1.15,0.31-1.73,0.46c-0.2,0.05-0.41,0.14-0.5-0.18c-0.09-0.32,0.19-0.28,0.31-0.33
		c1.54-0.67,3.1-1.31,4.64-1.98c0.33-0.15,0.43-0.07,0.53,0.25c0.57,1.76-0.22,3.2-2.01,4.25C114.41,78.16,112.85,78.15,111.47,77.6
		z"/>
	<path class="st0" d="M71.67,77.78c-0.67-0.03-1.34-0.06-2.01-0.11c-0.23-0.02-0.35,0.01-0.42,0.27c-0.08,0.27,0.07,0.3,0.24,0.38
		c1.18,0.55,2.36,1.11,3.62,1.71c-1.44,0.84-2.89,1.05-4.39,0.45c-1.14-0.45-1.92-1.29-2.32-2.45c-0.32-0.94,0.04-1.45,1.03-1.4
		C68.9,76.72,70.32,77.09,71.67,77.78z"/>
	<path class="st0" d="M108.08,79.7c-0.02,1.14-0.19,2.12-0.68,3.02c-0.3,0.55-0.82,0.8-1.43,0.88c-0.37,0.05-0.66-0.15-0.87-0.42
		c-0.81-1.01-1.19-2.14-0.87-3.42c0.26-1.06,0.85-1.99,1.3-2.97c0.1-0.23,0.27-0.14,0.43-0.09c0.22,0.07,0.47,0.06,0.46,0.43
		c-0.03,1.22-0.01,2.45-0.01,3.67c0,0.07,0,0.15,0,0.32C106.98,80.65,107.48,80.22,108.08,79.7z"/>
	<path class="st0" d="M36.31,72.27c0.97,0.83,1.89,1.61,2.89,2.46c-1.37,0.2-2.6,0.22-3.71-0.56c-1.06-0.75-1.36-1.83-1.28-3.06
		c0.01-0.11,0.04-0.21,0.04-0.32c-0.01-0.3,0.12-0.31,0.37-0.22c1.02,0.36,2.05,0.69,3.08,1.03c0.12,0.04,0.27,0.04,0.26,0.25
		c-0.02,0.23-0.17,0.2-0.31,0.23C37.22,72.17,36.79,72.11,36.31,72.27z"/>
	<path class="st0" d="M9.8,52.35c0.14,0.45,0.27,0.82,0.38,1.2c0.07,0.22,0.15,0.27,0.39,0.17c0.95-0.42,1.9-0.82,2.86-1.22
		c0.24,0.88-0.05,1.65-0.84,2.18c-0.82,0.56-1.72,0.92-2.74,0.92c-0.5,0-1.01,0.02-1.51,0c-0.19-0.01-0.47,0.16-0.57-0.2
		c-0.08-0.3-0.23-0.54,0.08-0.86C8.51,53.87,9.11,53.13,9.8,52.35z"/>
	<path class="st2" d="M142.19,56.57c0.4,0.57,0.76,1.06,1.1,1.57c0.24,0.36,0.54,0.72,0.27,1.21c-0.3,0.55-0.75,0.88-1.38,0.93
		c-0.83,0.06-1.52-0.27-2.15-0.77c-0.63-0.52-1.12-1.17-1.69-1.75c-0.24-0.24,0.05-0.34,0.12-0.49c0.1-0.19,0.22-0.23,0.44-0.11
		c0.76,0.45,1.55,0.86,2.31,1.31c0.3,0.18,0.36,0.11,0.44-0.19C141.8,57.73,142,57.19,142.19,56.57z"/>
	<path class="st2" d="M90.97,73.34c-0.01,0.02-0.03,0.04-0.04,0.07c0-0.01-0.02-0.03-0.01-0.04c0.01-0.04,0.04-0.05,0.07-0.01
		C90.98,73.35,90.97,73.34,90.97,73.34z"/>
	<path class="st3" d="M35.95,118.82c0.01,0.04,0.03,0.09,0.02,0.11c-0.04,0.04-0.07-0.01-0.08-0.04
		C35.9,118.86,35.93,118.84,35.95,118.82z"/>
	<path class="st3" d="M95.57,79.6c-0.01,0.02-0.03,0.04-0.04,0.06c-0.01-0.02-0.01-0.04-0.02-0.05C95.54,79.6,95.56,79.6,95.57,79.6
		C95.58,79.6,95.57,79.6,95.57,79.6z"/>
	<path class="st2" d="M105.28,119.19c-0.04,0.03-0.08,0.05-0.11,0c0-0.01,0.04-0.04,0.06-0.05
		C105.24,119.15,105.26,119.17,105.28,119.19z"/>
	<path class="st0" d="M74.48,36.98c0.02-0.01,0.04-0.03,0.06-0.04c0.02,0.04,0.01,0.04-0.03,0.02
		C74.51,36.96,74.5,36.97,74.48,36.98C74.49,36.98,74.48,36.98,74.48,36.98z"/>
	<path class="st2" d="M113,123.05c-0.03,0.01-0.07,0.01-0.1,0.02c0.01-0.03,0.03-0.05,0.04-0.08
		C112.97,123.01,112.98,123.03,113,123.05z"/>
	<path class="st2" d="M94.67,45.32c-0.02,0.04-0.05,0.08-0.09,0.04c-0.01-0.01,0.01-0.07,0.02-0.11
		C94.62,45.28,94.65,45.3,94.67,45.32z"/>
	<path class="st5" d="M124.68,50.67c0.03,0.04,0.13,0.06,0.07,0.12c-0.04,0.05-0.11,0.01-0.15-0.05
		C124.63,50.72,124.66,50.7,124.68,50.67z"/>
	<path class="st5" d="M49.17,94.08c0-0.04-0.02-0.1,0-0.11c0.04-0.04,0.07,0.01,0.09,0.05C49.23,94.04,49.2,94.06,49.17,94.08z"/>
	<path class="st5" d="M89.29,54.8c-0.02-0.01-0.05-0.02-0.07-0.04c0.01-0.01,0.02-0.03,0.03-0.04
		C89.26,54.75,89.27,54.77,89.29,54.8C89.29,54.8,89.29,54.8,89.29,54.8z"/>
	<path class="st5" d="M117.78,29.24c0.04-0.02,0.08-0.06,0.11,0.01c0.01,0.01-0.03,0.04-0.05,0.07
		C117.82,29.29,117.8,29.27,117.78,29.24z"/>
	<path class="st5" d="M93.36,71.87c0.03-0.02,0.05-0.03,0.08-0.05c0,0.04,0,0.07,0,0.11C93.41,71.9,93.38,71.88,93.36,71.87z"/>
	<path class="st5" d="M52.18,79.6c-0.02,0.02-0.04,0.04-0.05,0.05c0-0.01-0.02-0.03-0.01-0.04C52.13,79.57,52.15,79.57,52.18,79.6
		C52.18,79.6,52.18,79.6,52.18,79.6z"/>
	<path class="st5" d="M51.05,48.82c-0.01-0.03-0.03-0.06-0.04-0.09c0.04,0,0.07,0,0.11,0.01C51.1,48.76,51.07,48.79,51.05,48.82z"/>
</g>
<g class="st6">
	<path d="M199.26,104.64c0,3.35-0.68,6.37-2.03,9.04c-1.35,2.67-3.34,4.76-5.95,6.28c-2.61,1.51-5.7,2.27-9.28,2.27
		c-4.29,0-7.83-1.03-10.62-3.1c-1.98-1.49-3.58-3.47-4.82-5.96c-1.24-2.48-1.85-4.9-1.85-7.24c0-1.36,0.37-2.53,1.11-3.5
		c0.74-0.97,1.69-1.46,2.83-1.46c0.93,0,1.71,0.38,2.36,1.13c0.64,0.76,1.19,1.88,1.65,3.37c0.55,1.76,1.15,3.24,1.79,4.42
		c0.64,1.19,1.55,2.16,2.71,2.93c1.17,0.77,2.7,1.15,4.6,1.15c2.61,0,4.73-0.77,6.36-2.33s2.45-3.49,2.45-5.8
		c0-1.84-0.44-3.33-1.32-4.48c-0.88-1.15-2.02-2.02-3.41-2.63c-1.39-0.6-3.26-1.25-5.59-1.93c-3.12-0.93-5.74-2.02-7.84-3.27
		c-2.11-1.25-3.78-2.95-5.01-5.11c-1.24-2.16-1.85-4.83-1.85-8.04c0-3.05,0.65-5.76,1.96-8.13c1.3-2.37,3.19-4.19,5.66-5.46
		c2.47-1.27,5.38-1.91,8.72-1.91c2.67,0,4.98,0.42,6.92,1.27c1.95,0.84,3.56,1.97,4.85,3.37c1.29,1.4,2.22,2.87,2.82,4.41
		c0.59,1.54,0.89,3.04,0.89,4.5c0,1.34-0.37,2.54-1.11,3.61c-0.74,1.07-1.67,1.61-2.77,1.61c-1.01,0-1.77-0.32-2.3-0.96
		c-0.52-0.64-1.09-1.7-1.71-3.16c-0.79-2.09-1.74-3.72-2.85-4.9c-1.11-1.17-2.89-1.76-5.34-1.76c-2.27,0-4.11,0.64-5.5,1.91
		c-1.39,1.27-2.09,2.8-2.09,4.59c0,1.11,0.24,2.07,0.71,2.87c0.47,0.81,1.13,1.5,1.96,2.08c0.83,0.58,1.67,1.03,2.52,1.36
		c0.85,0.33,2.25,0.81,4.21,1.44c2.45,0.73,4.67,1.54,6.66,2.42s3.68,1.95,5.07,3.21c1.39,1.26,2.48,2.86,3.26,4.78
		C198.87,99.47,199.26,101.84,199.26,104.64z"/>
	<path d="M234.55,115l-2.08-6.96H214.8l-2.08,7.11c-0.81,2.77-1.5,4.65-2.08,5.62s-1.51,1.46-2.82,1.46c-1.11,0-2.09-0.52-2.94-1.55
		c-0.85-1.03-1.27-2.21-1.27-3.52c0-0.76,0.1-1.54,0.3-2.34c0.2-0.81,0.52-1.93,0.98-3.37l11.12-36c0.32-1.03,0.7-2.27,1.14-3.72
		c0.44-1.45,0.92-2.65,1.42-3.61c0.5-0.96,1.17-1.73,1.99-2.33c0.82-0.59,1.83-0.89,3.04-0.89c1.23,0,2.25,0.3,3.07,0.89
		c0.82,0.59,1.48,1.36,1.99,2.29c0.5,0.93,0.93,1.93,1.27,3.01c0.35,1.07,0.79,2.5,1.32,4.29l11.36,35.77
		c0.89,2.72,1.33,4.7,1.33,5.94c0,1.29-0.42,2.46-1.26,3.54s-1.85,1.61-3.04,1.61c-0.69,0-1.29-0.16-1.78-0.47
		c-0.49-0.32-0.91-0.74-1.25-1.29c-0.34-0.54-0.7-1.37-1.08-2.5C235.15,116.84,234.82,115.85,234.55,115z M217.11,99.61h12.99
		l-6.55-22.88L217.11,99.61z"/>
	<path d="M253.76,72.27l9.84,37.17L273.48,72c0.51-1.97,0.9-3.33,1.16-4.1c0.26-0.77,0.68-1.46,1.27-2.08
		c0.59-0.62,1.4-0.93,2.43-0.93c0.75,0,1.45,0.24,2.09,0.72c0.64,0.48,1.15,1.12,1.51,1.91c0.37,0.79,0.55,1.59,0.55,2.4
		c0,0.55-0.06,1.15-0.18,1.8s-0.27,1.27-0.44,1.89c-0.18,0.62-0.36,1.25-0.53,1.91l-10.53,36.23c-0.38,1.39-0.75,2.7-1.13,3.95
		s-0.81,2.34-1.3,3.29s-1.15,1.72-1.97,2.33c-0.82,0.61-1.82,0.91-3.01,0.91s-2.19-0.3-3.01-0.89s-1.48-1.37-1.99-2.34
		c-0.5-0.97-0.94-2.07-1.32-3.31s-0.75-2.55-1.13-3.93l-10.35-35.92c-0.18-0.66-0.36-1.3-0.55-1.93c-0.19-0.63-0.35-1.31-0.47-2.04
		c-0.13-0.73-0.19-1.35-0.19-1.85c0-1.29,0.41-2.46,1.22-3.52s1.83-1.59,3.05-1.59c1.5,0,2.56,0.59,3.19,1.76
		C252.47,67.82,253.11,69.69,253.76,72.27z"/>
	<path d="M317.75,74.5h-19.84v13.61h18.27c1.34,0,2.35,0.38,3.01,1.15c0.66,0.77,0.99,1.78,0.99,3.04c0,1.26-0.33,2.29-0.98,3.08
		c-0.65,0.79-1.66,1.19-3.02,1.19h-18.27v15.77h20.52c1.38,0,2.43,0.41,3.13,1.23c0.7,0.82,1.05,1.91,1.05,3.27
		c0,1.31-0.35,2.38-1.05,3.2c-0.7,0.82-1.75,1.23-3.13,1.23H294.5c-1.92,0-3.3-0.54-4.14-1.63c-0.84-1.08-1.26-2.84-1.26-5.26V72.72
		c0-1.61,0.19-2.93,0.56-3.95c0.38-1.02,0.96-1.76,1.76-2.23c0.8-0.47,1.82-0.7,3.07-0.7h23.25c1.4,0,2.45,0.4,3.13,1.19
		c0.68,0.79,1.02,1.83,1.02,3.12c0,1.31-0.34,2.36-1.02,3.16C320.2,74.1,319.15,74.5,317.75,74.5z"/>
	<path d="M335.07,65.84h11.48c2.98,0,5.54,0.35,7.68,1.06c2.13,0.71,4.07,2.03,5.81,3.97c4.53,4.94,6.79,12.45,6.79,22.54
		c0,3.33-0.23,6.37-0.68,9.11s-1.16,5.22-2.11,7.43c-0.95,2.21-2.16,4.18-3.65,5.92c-1.17,1.34-2.44,2.41-3.83,3.21
		c-1.38,0.81-2.87,1.37-4.46,1.7c-1.59,0.33-3.39,0.49-5.38,0.49h-11.48c-1.6,0-2.81-0.31-3.62-0.93c-0.81-0.62-1.34-1.49-1.59-2.61
		c-0.25-1.12-0.37-2.58-0.37-4.37V72.72c0-2.42,0.42-4.17,1.27-5.26C331.79,66.38,333.17,65.84,335.07,65.84z M338.48,74.72v37.62
		h6.67c1.46,0,2.61-0.05,3.44-0.15c0.83-0.1,1.69-0.35,2.58-0.76c0.89-0.4,1.66-0.97,2.31-1.7c2.95-3.18,4.42-8.65,4.42-16.41
		c0-5.47-0.65-9.57-1.94-12.29s-2.89-4.46-4.79-5.2c-1.9-0.74-4.19-1.12-6.88-1.12H338.48z"/>
	<path d="M401.71,65.84h11.48c2.98,0,5.54,0.35,7.68,1.06c2.13,0.71,4.07,2.03,5.81,3.97c4.53,4.94,6.79,12.45,6.79,22.54
		c0,3.33-0.23,6.37-0.68,9.11c-0.46,2.75-1.16,5.22-2.11,7.43c-0.95,2.21-2.17,4.18-3.65,5.92c-1.17,1.34-2.44,2.41-3.83,3.21
		s-2.87,1.37-4.46,1.7c-1.59,0.33-3.39,0.49-5.38,0.49h-11.48c-1.6,0-2.81-0.31-3.62-0.93c-0.81-0.62-1.34-1.49-1.59-2.61
		c-0.25-1.12-0.37-2.58-0.37-4.37V72.72c0-2.42,0.42-4.17,1.27-5.26C398.43,66.38,399.81,65.84,401.71,65.84z M405.12,74.72v37.62
		h6.67c1.46,0,2.61-0.05,3.44-0.15c0.83-0.1,1.69-0.35,2.58-0.76s1.66-0.97,2.31-1.7c2.95-3.18,4.42-8.65,4.42-16.41
		c0-5.47-0.65-9.57-1.94-12.29s-2.89-4.46-4.79-5.2c-1.9-0.74-4.19-1.12-6.88-1.12H405.12z"/>
	<path d="M453.03,97.56h-3.08v17.81c0,2.34-0.41,4.07-1.22,5.18s-1.87,1.66-3.17,1.66c-1.4,0-2.49-0.58-3.26-1.74
		c-0.77-1.16-1.16-2.86-1.16-5.11V72.72c0-2.42,0.42-4.17,1.28-5.26c0.85-1.08,2.22-1.63,4.12-1.63h14.32
		c1.98,0,3.67,0.11,5.07,0.32c1.4,0.21,2.67,0.65,3.8,1.3c1.36,0.73,2.57,1.78,3.62,3.14s1.84,2.94,2.39,4.75s0.82,3.71,0.82,5.73
		c0,4.13-0.91,7.44-2.74,9.91c-1.83,2.47-4.6,4.22-8.32,5.26c1.56,1.06,3.05,2.62,4.48,4.69c1.42,2.07,2.69,4.27,3.81,6.6
		c1.12,2.33,1.99,4.44,2.61,6.32c0.62,1.88,0.93,3.17,0.93,3.88c0,0.73-0.18,1.46-0.55,2.17c-0.37,0.72-0.87,1.29-1.5,1.7
		c-0.63,0.42-1.36,0.62-2.19,0.62c-0.99,0-1.82-0.3-2.49-0.89s-1.25-1.34-1.73-2.25s-1.14-2.24-1.97-4.01l-3.53-7.49
		c-1.27-2.75-2.4-4.84-3.4-6.28c-1-1.44-2.01-2.42-3.04-2.95C455.89,97.83,454.59,97.56,453.03,97.56z M458.07,74.27h-8.12v15.24
		h7.89c2.12,0,3.89-0.23,5.34-0.7c1.44-0.47,2.54-1.26,3.31-2.38c0.76-1.12,1.14-2.67,1.14-4.63c0-1.54-0.31-2.89-0.92-4.07
		c-0.61-1.17-1.46-2.05-2.55-2.63C463.12,74.55,461.1,74.27,458.07,74.27z"/>
	<path d="M513.52,74.5h-19.84v13.61h18.27c1.34,0,2.35,0.38,3.01,1.15c0.66,0.77,0.99,1.78,0.99,3.04c0,1.26-0.33,2.29-0.98,3.08
		c-0.65,0.79-1.66,1.19-3.02,1.19h-18.27v15.77h20.52c1.38,0,2.43,0.41,3.13,1.23c0.7,0.82,1.05,1.91,1.05,3.27
		c0,1.31-0.35,2.38-1.05,3.2c-0.7,0.82-1.75,1.23-3.13,1.23h-23.93c-1.92,0-3.3-0.54-4.14-1.63c-0.84-1.08-1.26-2.84-1.26-5.26
		V72.72c0-1.61,0.19-2.93,0.56-3.95c0.38-1.02,0.96-1.76,1.76-2.23c0.8-0.47,1.82-0.7,3.07-0.7h23.25c1.4,0,2.45,0.4,3.13,1.19
		c0.68,0.79,1.02,1.83,1.02,3.12c0,1.31-0.34,2.36-1.02,3.16C515.97,74.1,514.93,74.5,513.52,74.5z"/>
	<path d="M553.2,115l-2.08-6.96h-17.67l-2.08,7.11c-0.81,2.77-1.5,4.65-2.08,5.62s-1.51,1.46-2.82,1.46c-1.11,0-2.09-0.52-2.94-1.55
		c-0.85-1.03-1.28-2.21-1.28-3.52c0-0.76,0.1-1.54,0.3-2.34c0.2-0.81,0.52-1.93,0.98-3.37l11.12-36c0.32-1.03,0.7-2.27,1.14-3.72
		c0.44-1.45,0.92-2.65,1.42-3.61c0.5-0.96,1.17-1.73,1.99-2.33c0.82-0.59,1.83-0.89,3.04-0.89c1.23,0,2.25,0.3,3.07,0.89
		c0.82,0.59,1.48,1.36,1.99,2.29s0.93,1.93,1.27,3.01s0.79,2.5,1.32,4.29l11.36,35.77c0.89,2.72,1.33,4.7,1.33,5.94
		c0,1.29-0.42,2.46-1.26,3.54c-0.84,1.07-1.85,1.61-3.04,1.61c-0.69,0-1.29-0.16-1.78-0.47c-0.5-0.32-0.91-0.74-1.25-1.29
		c-0.34-0.54-0.7-1.37-1.08-2.5S553.47,115.85,553.2,115z M535.76,99.61h12.99l-6.55-22.88L535.76,99.61z"/>
	<path d="M583.74,112.92l-6.97-35.32v38.27c0,2.12-0.37,3.71-1.11,4.76c-0.74,1.06-1.72,1.59-2.95,1.59c-1.19,0-2.16-0.52-2.91-1.57
		s-1.13-2.64-1.13-4.78V72c0-2.42,0.49-4.05,1.48-4.9c0.99-0.84,2.32-1.27,4-1.27h2.73c1.64,0,2.83,0.19,3.57,0.57
		s1.29,1.06,1.65,2.04s0.76,2.58,1.22,4.8l6.32,30.37l6.32-30.37c0.45-2.22,0.86-3.82,1.22-4.8c0.36-0.98,0.9-1.66,1.65-2.04
		s1.93-0.57,3.57-0.57h2.73c1.68,0,3.01,0.42,4,1.27c0.99,0.84,1.48,2.48,1.48,4.9v43.86c0,2.12-0.37,3.71-1.11,4.76
		c-0.74,1.06-1.74,1.59-2.98,1.59c-1.17,0-2.12-0.53-2.88-1.59c-0.75-1.06-1.13-2.65-1.13-4.76V77.6l-6.97,35.32
		c-0.46,2.29-0.83,3.98-1.11,5.05c-0.29,1.07-0.82,2.05-1.59,2.93c-0.77,0.88-1.84,1.32-3.2,1.32c-1.03,0-1.9-0.28-2.61-0.85
		c-0.71-0.57-1.26-1.29-1.66-2.17c-0.4-0.88-0.71-1.86-0.93-2.93C584.21,115.19,583.97,114.08,583.74,112.92z"/>
	<path d="M652.68,104.64c0,3.35-0.68,6.37-2.03,9.04c-1.35,2.67-3.34,4.76-5.95,6.28c-2.61,1.51-5.7,2.27-9.28,2.27
		c-4.29,0-7.83-1.03-10.62-3.1c-1.98-1.49-3.58-3.47-4.82-5.96s-1.85-4.9-1.85-7.24c0-1.36,0.37-2.53,1.11-3.5s1.69-1.46,2.83-1.46
		c0.93,0,1.71,0.38,2.36,1.13c0.64,0.76,1.19,1.88,1.65,3.37c0.55,1.76,1.15,3.24,1.79,4.42c0.64,1.19,1.55,2.16,2.71,2.93
		c1.17,0.77,2.7,1.15,4.6,1.15c2.61,0,4.73-0.77,6.36-2.33s2.45-3.49,2.45-5.8c0-1.84-0.44-3.33-1.32-4.48
		c-0.88-1.15-2.02-2.02-3.41-2.63c-1.39-0.6-3.26-1.25-5.59-1.93c-3.12-0.93-5.74-2.02-7.84-3.27s-3.78-2.95-5.01-5.11
		c-1.24-2.16-1.85-4.83-1.85-8.04c0-3.05,0.65-5.76,1.96-8.13c1.3-2.37,3.19-4.19,5.66-5.46c2.47-1.27,5.38-1.91,8.72-1.91
		c2.67,0,4.98,0.42,6.92,1.27c1.95,0.84,3.56,1.97,4.85,3.37c1.29,1.4,2.22,2.87,2.82,4.41c0.59,1.54,0.89,3.04,0.89,4.5
		c0,1.34-0.37,2.54-1.11,3.61c-0.74,1.07-1.67,1.61-2.77,1.61c-1.01,0-1.77-0.32-2.3-0.96c-0.52-0.64-1.09-1.7-1.71-3.16
		c-0.79-2.09-1.74-3.72-2.85-4.9c-1.11-1.17-2.89-1.76-5.34-1.76c-2.27,0-4.11,0.64-5.5,1.91s-2.09,2.8-2.09,4.59
		c0,1.11,0.24,2.07,0.71,2.87c0.47,0.81,1.13,1.5,1.96,2.08c0.83,0.58,1.67,1.03,2.52,1.36c0.85,0.33,2.25,0.81,4.21,1.44
		c2.45,0.73,4.67,1.54,6.66,2.42c1.99,0.88,3.68,1.95,5.07,3.21c1.39,1.26,2.48,2.86,3.26,4.78
		C652.29,99.47,652.68,101.84,652.68,104.64z"/>
</g>
</svg>
